
<!DOCTYPE svg PUBLIC "-//W3C//DTD SVG 1.1//EN" "http://www.w3.org/Graphics/SVG/1.1/DTD/svg11.dtd">
<svg xmlns:xlink="http://www.w3.org/1999/xlink" width="1382.4pt" height="696.24pt" viewBox="0 0 1382.4 696.24" xmlns="http://www.w3.org/2000/svg" version="1.1">
 <metadata>
  <rdf:RDF xmlns:dc="http://purl.org/dc/elements/1.1/" xmlns:cc="http://creativecommons.org/ns#" xmlns:rdf="http://www.w3.org/1999/02/22-rdf-syntax-ns#">
   <cc:Work>
    <dc:type rdf:resource="http://purl.org/dc/dcmitype/StillImage"/>
    <dc:date>2025-11-21T20:10:54.769943</dc:date>
    <dc:format>image/svg+xml</dc:format>
    <dc:creator>
     <cc:Agent>
      <dc:title>Matplotlib v3.10.6, https://matplotlib.org/</dc:title>
     </cc:Agent>
    </dc:creator>
   </cc:Work>
  </rdf:RDF>
 </metadata>
 <defs>
  <style type="text/css">*{stroke-linejoin: round; stroke-linecap: butt}</style>
 </defs>
 <g id="figure_1">
  <g id="patch_1">
   <path d="M 0 696.24  L 1382.4 696.24  L 1382.4 0  L 0 0  z " style="fill: #ffffff"/>
  </g>
  <g id="axes_1">
   <g id="patch_2">
    <path d="M 64.010684 120.530616  L 1365.091152 120.530616  L 1365.091152 26.850302  L 64.010684 26.850302  z " style="fill: #e5e5e5"/>
   </g>
   <g id="matplotlib.axis_1">
    <g id="xtick_1">
     <g id="line2d_1">
      <path d="M 123.150706 120.530616  L 123.150706 26.850302  " clip-path="url(#p3a7ffe85e5)" style="fill: none; stroke: #ffffff; stroke-width: 0.8; stroke-linecap: square"/>
     </g>
     <g id="line2d_2">
      <defs>
       <path id="m67b50e4eb9" d="M 0 0  L 0 3.5  " style="stroke: #555555; stroke-width: 0.8"/>
      </defs>
      <g>
       <use xlink:href="#m67b50e4eb9" x="123.150706" y="120.530616" style="fill: #555555; stroke: #555555; stroke-width: 0.8"/>
      </g>
     </g>
     <g id="text_1">
      <!-- 0 -->
      <g style="fill: #555555" transform="translate(119.969456 135.129053) scale(0.1 -0.1)">
       <defs>
        <path id="DejaVuSans-30" d="M 2034 4250  Q 1547 4250 1301 3770  Q 1056 3291 1056 2328  Q 1056 1369 1301 889  Q 1547 409 2034 409  Q 2525 409 2770 889  Q 3016 1369 3016 2328  Q 3016 3291 2770 3770  Q 2525 4250 2034 4250  z M 2034 4750  Q 2819 4750 3233 4129  Q 3647 3509 3647 2328  Q 3647 1150 3233 529  Q 2819 -91 2034 -91  Q 1250 -91 836 529  Q 422 1150 422 2328  Q 422 3509 836 4129  Q 1250 4750 2034 4750  z " transform="scale(0.015625)"/>
       </defs>
       <use xlink:href="#DejaVuSans-30"/>
      </g>
     </g>
    </g>
    <g id="xtick_2">
     <g id="line2d_3">
      <path d="M 406.795892 120.530616  L 406.795892 26.850302  " clip-path="url(#p3a7ffe85e5)" style="fill: none; stroke: #ffffff; stroke-width: 0.8; stroke-linecap: square"/>
     </g>
     <g id="line2d_4">
      <g>
       <use xlink:href="#m67b50e4eb9" x="406.795892" y="120.530616" style="fill: #555555; stroke: #555555; stroke-width: 0.8"/>
      </g>
     </g>
     <g id="text_2">
      <!-- 200 -->
      <g style="fill: #555555" transform="translate(397.252142 135.129053) scale(0.1 -0.1)">
       <defs>
        <path id="DejaVuSans-32" d="M 1228 531  L 3431 531  L 3431 0  L 469 0  L 469 531  Q 828 903 1448 1529  Q 2069 2156 2228 2338  Q 2531 2678 2651 2914  Q 2772 3150 2772 3378  Q 2772 3750 2511 3984  Q 2250 4219 1831 4219  Q 1534 4219 1204 4116  Q 875 4013 500 3803  L 500 4441  Q 881 4594 1212 4672  Q 1544 4750 1819 4750  Q 2544 4750 2975 4387  Q 3406 4025 3406 3419  Q 3406 3131 3298 2873  Q 3191 2616 2906 2266  Q 2828 2175 2409 1742  Q 1991 1309 1228 531  z " transform="scale(0.015625)"/>
       </defs>
       <use xlink:href="#DejaVuSans-32"/>
       <use xlink:href="#DejaVuSans-30" transform="translate(63.623047 0)"/>
       <use xlink:href="#DejaVuSans-30" transform="translate(127.246094 0)"/>
      </g>
     </g>
    </g>
    <g id="xtick_3">
     <g id="line2d_5">
      <path d="M 690.441077 120.530616  L 690.441077 26.850302  " clip-path="url(#p3a7ffe85e5)" style="fill: none; stroke: #ffffff; stroke-width: 0.8; stroke-linecap: square"/>
     </g>
     <g id="line2d_6">
      <g>
       <use xlink:href="#m67b50e4eb9" x="690.441077" y="120.530616" style="fill: #555555; stroke: #555555; stroke-width: 0.8"/>
      </g>
     </g>
     <g id="text_3">
      <!-- 400 -->
      <g style="fill: #555555" transform="translate(680.897327 135.129053) scale(0.1 -0.1)">
       <defs>
        <path id="DejaVuSans-34" d="M 2419 4116  L 825 1625  L 2419 1625  L 2419 4116  z M 2253 4666  L 3047 4666  L 3047 1625  L 3713 1625  L 3713 1100  L 3047 1100  L 3047 0  L 2419 0  L 2419 1100  L 313 1100  L 313 1709  L 2253 4666  z " transform="scale(0.015625)"/>
       </defs>
       <use xlink:href="#DejaVuSans-34"/>
       <use xlink:href="#DejaVuSans-30" transform="translate(63.623047 0)"/>
       <use xlink:href="#DejaVuSans-30" transform="translate(127.246094 0)"/>
      </g>
     </g>
    </g>
    <g id="xtick_4">
     <g id="line2d_7">
      <path d="M 974.086263 120.530616  L 974.086263 26.850302  " clip-path="url(#p3a7ffe85e5)" style="fill: none; stroke: #ffffff; stroke-width: 0.8; stroke-linecap: square"/>
     </g>
     <g id="line2d_8">
      <g>
       <use xlink:href="#m67b50e4eb9" x="974.086263" y="120.530616" style="fill: #555555; stroke: #555555; stroke-width: 0.8"/>
      </g>
     </g>
     <g id="text_4">
      <!-- 600 -->
      <g style="fill: #555555" transform="translate(964.542513 135.129053) scale(0.1 -0.1)">
       <defs>
        <path id="DejaVuSans-36" d="M 2113 2584  Q 1688 2584 1439 2293  Q 1191 2003 1191 1497  Q 1191 994 1439 701  Q 1688 409 2113 409  Q 2538 409 2786 701  Q 3034 994 3034 1497  Q 3034 2003 2786 2293  Q 2538 2584 2113 2584  z M 3366 4563  L 3366 3988  Q 3128 4100 2886 4159  Q 2644 4219 2406 4219  Q 1781 4219 1451 3797  Q 1122 3375 1075 2522  Q 1259 2794 1537 2939  Q 1816 3084 2150 3084  Q 2853 3084 3261 2657  Q 3669 2231 3669 1497  Q 3669 778 3244 343  Q 2819 -91 2113 -91  Q 1303 -91 875 529  Q 447 1150 447 2328  Q 447 3434 972 4092  Q 1497 4750 2381 4750  Q 2619 4750 2861 4703  Q 3103 4656 3366 4563  z " transform="scale(0.015625)"/>
       </defs>
       <use xlink:href="#DejaVuSans-36"/>
       <use xlink:href="#DejaVuSans-30" transform="translate(63.623047 0)"/>
       <use xlink:href="#DejaVuSans-30" transform="translate(127.246094 0)"/>
      </g>
     </g>
    </g>
    <g id="xtick_5">
     <g id="line2d_9">
      <path d="M 1257.731449 120.530616  L 1257.731449 26.850302  " clip-path="url(#p3a7ffe85e5)" style="fill: none; stroke: #ffffff; stroke-width: 0.8; stroke-linecap: square"/>
     </g>
     <g id="line2d_10">
      <g>
       <use xlink:href="#m67b50e4eb9" x="1257.731449" y="120.530616" style="fill: #555555; stroke: #555555; stroke-width: 0.8"/>
      </g>
     </g>
     <g id="text_5">
      <!-- 800 -->
      <g style="fill: #555555" transform="translate(1248.187699 135.129053) scale(0.1 -0.1)">
       <defs>
        <path id="DejaVuSans-38" d="M 2034 2216  Q 1584 2216 1326 1975  Q 1069 1734 1069 1313  Q 1069 891 1326 650  Q 1584 409 2034 409  Q 2484 409 2743 651  Q 3003 894 3003 1313  Q 3003 1734 2745 1975  Q 2488 2216 2034 2216  z M 1403 2484  Q 997 2584 770 2862  Q 544 3141 544 3541  Q 544 4100 942 4425  Q 1341 4750 2034 4750  Q 2731 4750 3128 4425  Q 3525 4100 3525 3541  Q 3525 3141 3298 2862  Q 3072 2584 2669 2484  Q 3125 2378 3379 2068  Q 3634 1759 3634 1313  Q 3634 634 3220 271  Q 2806 -91 2034 -91  Q 1263 -91 848 271  Q 434 634 434 1313  Q 434 1759 690 2068  Q 947 2378 1403 2484  z M 1172 3481  Q 1172 3119 1398 2916  Q 1625 2713 2034 2713  Q 2441 2713 2670 2916  Q 2900 3119 2900 3481  Q 2900 3844 2670 4047  Q 2441 4250 2034 4250  Q 1625 4250 1398 4047  Q 1172 3844 1172 3481  z " transform="scale(0.015625)"/>
       </defs>
       <use xlink:href="#DejaVuSans-38"/>
       <use xlink:href="#DejaVuSans-30" transform="translate(63.623047 0)"/>
       <use xlink:href="#DejaVuSans-30" transform="translate(127.246094 0)"/>
      </g>
     </g>
    </g>
   </g>
   <g id="matplotlib.axis_2">
    <g id="ytick_1">
     <g id="line2d_11">
      <path d="M 64.010684 120.530616  L 1365.091152 120.530616  " clip-path="url(#p3a7ffe85e5)" style="fill: none; stroke: #ffffff; stroke-width: 0.8; stroke-linecap: square"/>
     </g>
     <g id="line2d_12">
      <defs>
       <path id="mb692f5eb23" d="M 0 0  L -3.5 0  " style="stroke: #555555; stroke-width: 0.8"/>
      </defs>
      <g>
       <use xlink:href="#mb692f5eb23" x="64.010684" y="120.530616" style="fill: #555555; stroke: #555555; stroke-width: 0.8"/>
      </g>
     </g>
     <g id="text_6">
      <!-- 0.00 -->
      <g style="fill: #555555" transform="translate(34.745059 124.329834) scale(0.1 -0.1)">
       <defs>
        <path id="DejaVuSans-2e" d="M 684 794  L 1344 794  L 1344 0  L 684 0  L 684 794  z " transform="scale(0.015625)"/>
       </defs>
       <use xlink:href="#DejaVuSans-30"/>
       <use xlink:href="#DejaVuSans-2e" transform="translate(63.623047 0)"/>
       <use xlink:href="#DejaVuSans-30" transform="translate(95.410156 0)"/>
       <use xlink:href="#DejaVuSans-30" transform="translate(159.033203 0)"/>
      </g>
     </g>
    </g>
    <g id="ytick_2">
     <g id="line2d_13">
      <path d="M 64.010684 97.110537  L 1365.091152 97.110537  " clip-path="url(#p3a7ffe85e5)" style="fill: none; stroke: #ffffff; stroke-width: 0.8; stroke-linecap: square"/>
     </g>
     <g id="line2d_14">
      <g>
       <use xlink:href="#mb692f5eb23" x="64.010684" y="97.110537" style="fill: #555555; stroke: #555555; stroke-width: 0.8"/>
      </g>
     </g>
     <g id="text_7">
      <!-- 0.25 -->
      <g style="fill: #555555" transform="translate(34.745059 100.909756) scale(0.1 -0.1)">
       <defs>
        <path id="DejaVuSans-35" d="M 691 4666  L 3169 4666  L 3169 4134  L 1269 4134  L 1269 2991  Q 1406 3038 1543 3061  Q 1681 3084 1819 3084  Q 2600 3084 3056 2656  Q 3513 2228 3513 1497  Q 3513 744 3044 326  Q 2575 -91 1722 -91  Q 1428 -91 1123 -41  Q 819 9 494 109  L 494 744  Q 775 591 1075 516  Q 1375 441 1709 441  Q 2250 441 2565 725  Q 2881 1009 2881 1497  Q 2881 1984 2565 2268  Q 2250 2553 1709 2553  Q 1456 2553 1204 2497  Q 953 2441 691 2322  L 691 4666  z " transform="scale(0.015625)"/>
       </defs>
       <use xlink:href="#DejaVuSans-30"/>
       <use xlink:href="#DejaVuSans-2e" transform="translate(63.623047 0)"/>
       <use xlink:href="#DejaVuSans-32" transform="translate(95.410156 0)"/>
       <use xlink:href="#DejaVuSans-35" transform="translate(159.033203 0)"/>
      </g>
     </g>
    </g>
    <g id="ytick_3">
     <g id="line2d_15">
      <path d="M 64.010684 73.690459  L 1365.091152 73.690459  " clip-path="url(#p3a7ffe85e5)" style="fill: none; stroke: #ffffff; stroke-width: 0.8; stroke-linecap: square"/>
     </g>
     <g id="line2d_16">
      <g>
       <use xlink:href="#mb692f5eb23" x="64.010684" y="73.690459" style="fill: #555555; stroke: #555555; stroke-width: 0.8"/>
      </g>
     </g>
     <g id="text_8">
      <!-- 0.50 -->
      <g style="fill: #555555" transform="translate(34.745059 77.489678) scale(0.1 -0.1)">
       <use xlink:href="#DejaVuSans-30"/>
       <use xlink:href="#DejaVuSans-2e" transform="translate(63.623047 0)"/>
       <use xlink:href="#DejaVuSans-35" transform="translate(95.410156 0)"/>
       <use xlink:href="#DejaVuSans-30" transform="translate(159.033203 0)"/>
      </g>
     </g>
    </g>
    <g id="ytick_4">
     <g id="line2d_17">
      <path d="M 64.010684 50.27038  L 1365.091152 50.27038  " clip-path="url(#p3a7ffe85e5)" style="fill: none; stroke: #ffffff; stroke-width: 0.8; stroke-linecap: square"/>
     </g>
     <g id="line2d_18">
      <g>
       <use xlink:href="#mb692f5eb23" x="64.010684" y="50.27038" style="fill: #555555; stroke: #555555; stroke-width: 0.8"/>
      </g>
     </g>
     <g id="text_9">
      <!-- 0.75 -->
      <g style="fill: #555555" transform="translate(34.745059 54.069599) scale(0.1 -0.1)">
       <defs>
        <path id="DejaVuSans-37" d="M 525 4666  L 3525 4666  L 3525 4397  L 1831 0  L 1172 0  L 2766 4134  L 525 4134  L 525 4666  z " transform="scale(0.015625)"/>
       </defs>
       <use xlink:href="#DejaVuSans-30"/>
       <use xlink:href="#DejaVuSans-2e" transform="translate(63.623047 0)"/>
       <use xlink:href="#DejaVuSans-37" transform="translate(95.410156 0)"/>
       <use xlink:href="#DejaVuSans-35" transform="translate(159.033203 0)"/>
      </g>
     </g>
    </g>
    <g id="ytick_5">
     <g id="line2d_19">
      <path d="M 64.010684 26.850302  L 1365.091152 26.850302  " clip-path="url(#p3a7ffe85e5)" style="fill: none; stroke: #ffffff; stroke-width: 0.8; stroke-linecap: square"/>
     </g>
     <g id="line2d_20">
      <g>
       <use xlink:href="#mb692f5eb23" x="64.010684" y="26.850302" style="fill: #555555; stroke: #555555; stroke-width: 0.8"/>
      </g>
     </g>
     <g id="text_10">
      <!-- 1.00 -->
      <g style="fill: #555555" transform="translate(34.745059 30.649521) scale(0.1 -0.1)">
       <defs>
        <path id="DejaVuSans-31" d="M 794 531  L 1825 531  L 1825 4091  L 703 3866  L 703 4441  L 1819 4666  L 2450 4666  L 2450 531  L 3481 531  L 3481 0  L 794 0  L 794 531  z " transform="scale(0.015625)"/>
       </defs>
       <use xlink:href="#DejaVuSans-31"/>
       <use xlink:href="#DejaVuSans-2e" transform="translate(63.623047 0)"/>
       <use xlink:href="#DejaVuSans-30" transform="translate(95.410156 0)"/>
       <use xlink:href="#DejaVuSans-30" transform="translate(159.033203 0)"/>
      </g>
     </g>
    </g>
   </g>
   <g id="line2d_21">
    <path d="M 123.150706 26.850302  L 125.987158 56.825899  L 127.405384 72.764385  L 131.660061 106.949897  L 133.078287 116.505959  L 134.496513 115.530694  L 135.914739 112.696087  L 137.332965 112.196777  L 138.751191 118.636099  L 140.169417 107.755647  L 141.587643 106.821836  L 145.842321 38.856285  L 147.260547 26.853928  L 148.678772 26.850957  L 151.515224 40.153321  L 152.93345 47.902041  L 155.769902 60.507751  L 157.188128 65.029236  L 158.606354 70.084476  L 160.02458 70.711081  L 161.442806 71.008188  L 162.861032 71.637451  L 164.279258 68.959247  L 167.11571 49.608131  L 169.952161 32.180967  L 171.370387 27.149471  L 172.788613 26.911809  L 174.206839 26.858674  L 175.625065 31.225955  L 177.043291 33.824338  L 178.461517 37.952287  L 179.879743 41.187869  L 181.297969 45.772518  L 182.716195 49.484083  L 184.134421 54.110648  L 185.552647 55.708327  L 186.970873 56.578494  L 188.389098 57.083062  L 189.807324 51.746364  L 192.643776 37.180937  L 194.062002 30.158659  L 195.480228 26.985953  L 198.31668 26.88803  L 199.734906 26.854908  L 201.153132 29.172822  L 202.571358 32.560883  L 203.989584 36.345722  L 205.40781 39.109873  L 206.826036 42.274007  L 208.244261 41.37793  L 209.662487 47.872297  L 211.080713 52.951835  L 212.498939 59.562591  L 213.917165 61.792306  L 215.335391 61.370873  L 216.753617 56.413275  L 218.171843 52.365395  L 219.590069 47.573356  L 221.008295 43.240811  L 222.426521 40.992172  L 223.844747 42.663293  L 225.262973 46.723613  L 226.681199 48.056833  L 228.099424 46.264936  L 229.51765 43.673864  L 230.935876 42.4139  L 232.354102 41.511953  L 233.772328 41.11464  L 235.190554 41.889769  L 236.60878 40.044768  L 239.445232 42.15026  L 240.863458 38.580324  L 242.281684 35.383739  L 243.69991 35.389641  L 245.118136 37.2863  L 246.536362 38.910171  L 247.954587 39.581816  L 249.372813 39.700325  L 250.791039 37.841967  L 252.209265 38.474171  L 253.627491 37.520718  L 255.045717 35.890906  L 256.463943 35.553481  L 257.882169 36.375469  L 259.300395 37.700206  L 260.718621 38.343289  L 262.136847 37.974724  L 263.555073 38.19759  L 264.973299 37.632728  L 266.391525 39.452526  L 269.227976 41.422324  L 270.646202 45.726745  L 273.482654 58.795821  L 274.90088 68.123175  L 276.319106 76.419799  L 277.737332 86.646531  L 279.155558 84.727114  L 280.573784 88.163212  L 281.99201 94.193669  L 283.410236 97.769987  L 284.828462 99.525064  L 286.246688 104.43148  L 287.664914 107.117591  L 289.083139 110.738197  L 290.501365 111.892323  L 291.919591 110.444656  L 293.337817 103.217786  L 294.756043 103.878413  L 296.174269 103.524351  L 297.592495 106.250063  L 299.010721 106.958306  L 300.428947 107.023891  L 301.847173 100.331842  L 303.265399 102.028529  L 304.683625 103.283487  L 306.101851 103.335352  L 307.520077 101.954712  L 308.938302 102.618672  L 310.356528 97.526412  L 311.774754 98.015051  L 313.19298 98.358591  L 314.611206 97.602426  L 316.029432 96.129819  L 317.447658 94.83748  L 318.865884 85.860058  L 320.28411 86.769661  L 321.702336 86.683721  L 323.120562 87.322065  L 324.538788 87.122704  L 325.957014 84.022086  L 327.37524 73.508236  L 328.793465 74.214275  L 330.211691 70.618794  L 331.629917 72.902024  L 333.048143 69.250119  L 334.466369 64.57195  L 335.884595 61.988197  L 337.302821 54.72462  L 338.721047 53.432343  L 340.139273 53.449741  L 341.557499 56.326256  L 342.975725 57.150497  L 344.393951 47.817231  L 345.812177 46.112174  L 347.230403 44.063004  L 348.648628 46.05141  L 350.066854 44.99833  L 351.48508 42.613914  L 352.903306 39.075727  L 354.321532 38.708001  L 355.739758 41.473018  L 357.157984 41.85456  L 358.57621 43.534249  L 359.994436 43.21528  L 361.412662 39.121997  L 362.830888 40.052923  L 364.249114 41.997284  L 365.66734 44.649513  L 367.085566 44.59418  L 368.503791 41.394102  L 369.922017 37.744314  L 371.340243 36.663002  L 372.758469 37.130397  L 374.176695 38.65474  L 375.594921 40.473157  L 377.013147 37.96057  L 378.431373 35.102701  L 379.849599 35.751326  L 381.267825 37.171228  L 382.686051 38.27317  L 384.104277 36.924227  L 385.522503 34.713941  L 386.940729 34.553874  L 388.358954 36.430605  L 389.77718 37.884972  L 392.613632 34.707169  L 394.031858 34.997722  L 395.450084 36.02921  L 396.86831 36.732947  L 398.286536 36.177436  L 399.704762 34.86131  L 401.122988 34.201302  L 402.541214 34.657068  L 403.95944 36.159813  L 405.377666 36.104074  L 406.795892 34.201415  L 408.214117 34.299678  L 409.632343 35.270593  L 411.050569 34.749751  L 413.887021 33.115537  L 415.305247 32.619559  L 416.723473 32.512713  L 418.141699 31.539861  L 419.559925 31.760809  L 420.978151 32.402992  L 422.396377 32.368887  L 423.814603 30.68378  L 425.232829 30.15833  L 426.651055 30.018264  L 428.06928 30.629281  L 429.487506 31.558153  L 432.323958 29.656492  L 433.742184 29.461001  L 435.16041 29.728125  L 436.578636 30.166482  L 437.996862 29.290964  L 439.415088 28.886895  L 440.833314 29.182306  L 443.669766 30.331773  L 445.087992 29.8422  L 446.506218 29.780013  L 447.924444 30.166027  L 449.342669 28.379878  L 450.760895 27.857804  L 452.179121 28.499197  L 453.597347 29.409589  L 455.015573 28.963992  L 456.433799 27.472665  L 457.852025 28.061684  L 459.270251 28.943234  L 460.688477 29.475806  L 463.524929 27.065474  L 464.943155 29.241892  L 469.197832 35.196377  L 470.616058 36.522823  L 472.034284 37.032325  L 473.45251 38.691065  L 474.870736 38.904126  L 476.288962 39.25475  L 477.707188 40.355813  L 479.125414 40.519214  L 481.961866 43.543791  L 483.380092 44.274883  L 484.798318 45.971009  L 486.216544 46.693499  L 487.63477 48.30355  L 489.052995 48.368283  L 490.471221 49.715075  L 491.889447 50.121475  L 493.307673 50.731363  L 494.725899 52.419798  L 496.144125 52.440084  L 497.562351 53.023332  L 498.980577 54.565598  L 500.398803 55.878019  L 501.817029 58.325545  L 503.235255 59.398043  L 504.653481 59.798564  L 506.071707 59.420939  L 507.489933 61.716612  L 508.908158 63.177137  L 510.326384 64.1728  L 511.74461 66.571873  L 513.162836 67.537389  L 514.581062 69.139353  L 517.417514 70.778929  L 520.253966 72.052068  L 521.672192 72.474918  L 523.090418 73.39936  L 524.508644 74.721948  L 525.92687 75.159166  L 527.345096 76.046429  L 528.763321 77.463359  L 530.181547 79.300715  L 531.599773 78.746515  L 533.017999 81.458156  L 534.436225 81.822183  L 535.854451 82.016916  L 537.272677 82.050768  L 538.690903 81.737736  L 540.109129 80.563881  L 541.527355 78.700836  L 544.363807 77.053646  L 545.782033 77.642471  L 547.200259 76.51586  L 548.618484 76.798014  L 550.03671 75.643815  L 551.454936 74.198923  L 552.873162 73.215513  L 554.291388 71.095647  L 555.709614 70.644754  L 557.12784 70.573429  L 558.546066 68.509344  L 559.964292 68.755031  L 561.382518 66.994866  L 562.800744 64.959862  L 564.21897 64.216423  L 565.637196 63.761588  L 567.055422 61.511551  L 568.473647 60.761256  L 569.891873 58.199892  L 571.310099 56.38424  L 572.728325 56.61364  L 574.146551 54.242623  L 575.564777 52.434181  L 576.983003 51.520481  L 578.401229 49.842154  L 581.237681 47.689691  L 582.655907 45.984859  L 584.074133 43.240689  L 585.492359 42.904311  L 586.910585 41.64276  L 588.32881 41.061153  L 589.747036 38.645862  L 591.165262 37.532089  L 592.583488 35.589319  L 594.001714 35.462025  L 595.41994 35.143351  L 596.838166 35.35398  L 599.674618 35.421346  L 601.092844 35.202175  L 603.929296 31.887028  L 605.347522 32.15162  L 606.765748 31.909901  L 608.183974 32.176647  L 609.602199 31.947914  L 611.020425 32.112804  L 612.438651 32.095448  L 613.856877 30.556343  L 615.275103 30.362447  L 619.529781 30.582584  L 620.948007 30.335107  L 622.366233 30.363987  L 623.784459 30.519636  L 626.620911 30.364135  L 630.875588 30.464455  L 632.293814 28.655467  L 635.130266 28.748839  L 637.966718 28.646983  L 639.384944 26.850302  L 681.931722 26.850302  L 683.349948 27.208304  L 684.768174 27.749577  L 689.022851 30.575536  L 691.859303 32.64099  L 693.277529 33.966304  L 694.695755 35.482793  L 696.113981 36.313092  L 697.532207 37.297093  L 698.950433 37.787352  L 700.368659 39.220551  L 701.786885 40.26241  L 703.205111 41.110956  L 704.623337 42.102557  L 706.041563 43.911062  L 710.29624 47.442853  L 713.132692 48.859107  L 714.550918 50.113993  L 715.969144 50.06702  L 717.38737 50.815945  L 718.805596 51.877774  L 720.223822 52.487234  L 721.642048 51.269935  L 723.060274 51.682715  L 724.4785 51.112688  L 725.896726 49.51717  L 727.314952 49.170446  L 728.733177 47.168616  L 730.151403 44.768024  L 731.569629 43.796381  L 732.987855 44.152886  L 734.406081 44.310226  L 735.824307 43.761692  L 738.660759 46.991955  L 740.078985 49.336318  L 741.497211 50.674709  L 742.915437 53.60333  L 744.333663 55.200931  L 745.751889 57.13892  L 747.170115 61.014799  L 750.006566 64.325414  L 751.424792 65.254406  L 752.843018 67.936618  L 754.261244 68.819447  L 755.67947 70.143879  L 757.097696 71.14326  L 758.515922 72.411361  L 759.934148 74.63732  L 761.352374 74.032328  L 762.7706 76.295855  L 764.188826 78.777092  L 765.607052 80.287885  L 767.025278 79.267249  L 768.443504 81.857694  L 769.861729 82.911617  L 771.279955 82.488863  L 774.116407 83.958324  L 775.534633 83.624514  L 776.952859 82.446857  L 778.371085 79.634772  L 779.789311 78.153799  L 781.207537 77.5973  L 782.625763 76.870439  L 784.043989 72.505543  L 785.462215 71.590178  L 786.880441 69.792348  L 788.298667 65.987671  L 789.716892 67.050411  L 791.135118 64.924651  L 792.553344 63.194891  L 793.97157 57.62459  L 795.389796 53.898207  L 796.808022 52.12403  L 798.226248 49.097651  L 799.644474 45.565409  L 801.0627 42.549052  L 802.480926 41.979354  L 803.899152 40.642045  L 805.317378 35.931497  L 806.735604 35.361726  L 808.15383 35.731689  L 809.572055 31.666762  L 810.990281 31.700378  L 812.408507 30.529453  L 813.826733 30.201096  L 815.244959 30.029993  L 816.663185 29.245156  L 819.499637 29.572033  L 820.917863 29.411265  L 822.336089 28.144229  L 823.754315 27.273951  L 825.172541 27.026771  L 830.845444 26.851493  L 915.939 26.850302  L 917.357226 27.472847  L 918.775452 28.528112  L 921.611904 31.099926  L 923.03013 31.974439  L 924.448356 33.619656  L 925.866582 32.55571  L 927.284808 33.402404  L 928.703034 34.058005  L 930.121259 34.358918  L 935.794163 34.065765  L 938.630615 34.347777  L 942.885293 34.240239  L 944.303519 34.436194  L 947.139971 34.497241  L 948.558197 34.15738  L 949.976422 34.49172  L 951.394648 34.281399  L 952.812874 34.513996  L 954.2311 30.67011  L 955.649326 30.636457  L 957.067552 30.770121  L 958.485778 30.604822  L 959.904004 26.850302  L 965.576908 26.850302  L 966.995134 27.24546  L 968.41336 28.166611  L 969.831585 29.535312  L 972.668037 33.204533  L 974.086263 35.525759  L 976.922715 41.833771  L 978.340941 45.24689  L 979.759167 49.011647  L 981.177393 51.803981  L 982.595619 53.854942  L 984.013845 57.236643  L 985.432071 61.814287  L 986.850297 65.667911  L 988.268523 67.239383  L 989.686748 70.62874  L 991.104974 74.854765  L 993.941426 78.886587  L 995.359652 81.525345  L 996.777878 86.598784  L 998.196104 87.72548  L 999.61433 89.670457  L 1001.032556 95.220526  L 1002.450782 96.77453  L 1003.869008 98.515121  L 1005.287234 99.442081  L 1006.70546 97.459417  L 1008.123686 98.376095  L 1009.541911 97.54429  L 1010.960137 96.934276  L 1012.378363 96.843492  L 1013.796589 94.413328  L 1015.214815 89.655456  L 1016.633041 87.285567  L 1018.051267 84.483916  L 1019.469493 79.166381  L 1020.887719 77.08757  L 1022.305945 75.478757  L 1023.724171 70.173355  L 1025.142397 67.898771  L 1026.560623 62.168006  L 1027.978849 62.019278  L 1029.397074 61.07924  L 1030.8153 61.357221  L 1032.233526 55.883047  L 1033.651752 56.831304  L 1036.488204 56.849013  L 1037.90643 56.562714  L 1039.324656 50.096156  L 1040.742882 51.751773  L 1042.161108 36.487596  L 1043.579334 37.248682  L 1044.99756 26.850302  L 1199.584186 26.850302  L 1201.002412 29.242648  L 1202.420638 32.399968  L 1203.838864 37.359213  L 1205.25709 43.314594  L 1208.093542 60.242104  L 1209.511767 66.533574  L 1210.929993 73.397096  L 1213.766445 91.293075  L 1215.184671 96.35391  L 1216.602897 98.725292  L 1219.439349 108.776662  L 1220.857575 111.029274  L 1222.275801 115.165989  L 1223.694027 114.988812  L 1225.112253 115.733638  L 1226.530479 115.358116  L 1227.948705 113.969036  L 1229.36693 114.753072  L 1230.785156 114.52059  L 1232.203382 114.624541  L 1233.621608 115.766226  L 1235.039834 114.773246  L 1237.876286 113.367051  L 1239.294512 112.193406  L 1240.712738 111.570845  L 1242.130964 110.441196  L 1244.967416 109.040263  L 1246.385642 113.54201  L 1247.803868 112.091053  L 1249.222094 114.01857  L 1250.640319 114.220886  L 1252.058545 115.133958  L 1253.476771 117.267214  L 1254.894997 118.113774  L 1256.313223 118.404502  L 1259.149675 115.033394  L 1260.567901 119.162241  L 1261.986127 120.530616  L 1305.951131 120.530616  L 1305.951131 120.530616  " clip-path="url(#p3a7ffe85e5)" style="fill: none; stroke: #e24a33; stroke-width: 1.5; stroke-linecap: square"/>
   </g>
   <g id="patch_3">
    <path d="M 64.010684 120.530616  L 64.010684 26.850302  " style="fill: none; stroke: #ffffff; stroke-linejoin: miter; stroke-linecap: square"/>
   </g>
   <g id="patch_4">
    <path d="M 1365.091152 120.530616  L 1365.091152 26.850302  " style="fill: none; stroke: #ffffff; stroke-linejoin: miter; stroke-linecap: square"/>
   </g>
   <g id="patch_5">
    <path d="M 64.010684 120.530616  L 1365.091152 120.530616  " style="fill: none; stroke: #ffffff; stroke-linejoin: miter; stroke-linecap: square"/>
   </g>
   <g id="patch_6">
    <path d="M 64.010684 26.850302  L 1365.091152 26.850302  " style="fill: none; stroke: #ffffff; stroke-linejoin: miter; stroke-linecap: square"/>
   </g>
   <g id="text_11">
    <!-- Average Delay (0 = no delay, 1 = full stop) -->
    <g transform="translate(559.314418 20.850302) scale(0.144 -0.144)">
     <defs>
      <path id="DejaVuSans-41" d="M 2188 4044  L 1331 1722  L 3047 1722  L 2188 4044  z M 1831 4666  L 2547 4666  L 4325 0  L 3669 0  L 3244 1197  L 1141 1197  L 716 0  L 50 0  L 1831 4666  z " transform="scale(0.015625)"/>
      <path id="DejaVuSans-76" d="M 191 3500  L 800 3500  L 1894 563  L 2988 3500  L 3597 3500  L 2284 0  L 1503 0  L 191 3500  z " transform="scale(0.015625)"/>
      <path id="DejaVuSans-65" d="M 3597 1894  L 3597 1613  L 953 1613  Q 991 1019 1311 708  Q 1631 397 2203 397  Q 2534 397 2845 478  Q 3156 559 3463 722  L 3463 178  Q 3153 47 2828 -22  Q 2503 -91 2169 -91  Q 1331 -91 842 396  Q 353 884 353 1716  Q 353 2575 817 3079  Q 1281 3584 2069 3584  Q 2775 3584 3186 3129  Q 3597 2675 3597 1894  z M 3022 2063  Q 3016 2534 2758 2815  Q 2500 3097 2075 3097  Q 1594 3097 1305 2825  Q 1016 2553 972 2059  L 3022 2063  z " transform="scale(0.015625)"/>
      <path id="DejaVuSans-72" d="M 2631 2963  Q 2534 3019 2420 3045  Q 2306 3072 2169 3072  Q 1681 3072 1420 2755  Q 1159 2438 1159 1844  L 1159 0  L 581 0  L 581 3500  L 1159 3500  L 1159 2956  Q 1341 3275 1631 3429  Q 1922 3584 2338 3584  Q 2397 3584 2469 3576  Q 2541 3569 2628 3553  L 2631 2963  z " transform="scale(0.015625)"/>
      <path id="DejaVuSans-61" d="M 2194 1759  Q 1497 1759 1228 1600  Q 959 1441 959 1056  Q 959 750 1161 570  Q 1363 391 1709 391  Q 2188 391 2477 730  Q 2766 1069 2766 1631  L 2766 1759  L 2194 1759  z M 3341 1997  L 3341 0  L 2766 0  L 2766 531  Q 2569 213 2275 61  Q 1981 -91 1556 -91  Q 1019 -91 701 211  Q 384 513 384 1019  Q 384 1609 779 1909  Q 1175 2209 1959 2209  L 2766 2209  L 2766 2266  Q 2766 2663 2505 2880  Q 2244 3097 1772 3097  Q 1472 3097 1187 3025  Q 903 2953 641 2809  L 641 3341  Q 956 3463 1253 3523  Q 1550 3584 1831 3584  Q 2591 3584 2966 3190  Q 3341 2797 3341 1997  z " transform="scale(0.015625)"/>
      <path id="DejaVuSans-67" d="M 2906 1791  Q 2906 2416 2648 2759  Q 2391 3103 1925 3103  Q 1463 3103 1205 2759  Q 947 2416 947 1791  Q 947 1169 1205 825  Q 1463 481 1925 481  Q 2391 481 2648 825  Q 2906 1169 2906 1791  z M 3481 434  Q 3481 -459 3084 -895  Q 2688 -1331 1869 -1331  Q 1566 -1331 1297 -1286  Q 1028 -1241 775 -1147  L 775 -588  Q 1028 -725 1275 -790  Q 1522 -856 1778 -856  Q 2344 -856 2625 -561  Q 2906 -266 2906 331  L 2906 616  Q 2728 306 2450 153  Q 2172 0 1784 0  Q 1141 0 747 490  Q 353 981 353 1791  Q 353 2603 747 3093  Q 1141 3584 1784 3584  Q 2172 3584 2450 3431  Q 2728 3278 2906 2969  L 2906 3500  L 3481 3500  L 3481 434  z " transform="scale(0.015625)"/>
      <path id="DejaVuSans-20" transform="scale(0.015625)"/>
      <path id="DejaVuSans-44" d="M 1259 4147  L 1259 519  L 2022 519  Q 2988 519 3436 956  Q 3884 1394 3884 2338  Q 3884 3275 3436 3711  Q 2988 4147 2022 4147  L 1259 4147  z M 628 4666  L 1925 4666  Q 3281 4666 3915 4102  Q 4550 3538 4550 2338  Q 4550 1131 3912 565  Q 3275 0 1925 0  L 628 0  L 628 4666  z " transform="scale(0.015625)"/>
      <path id="DejaVuSans-6c" d="M 603 4863  L 1178 4863  L 1178 0  L 603 0  L 603 4863  z " transform="scale(0.015625)"/>
      <path id="DejaVuSans-79" d="M 2059 -325  Q 1816 -950 1584 -1140  Q 1353 -1331 966 -1331  L 506 -1331  L 506 -850  L 844 -850  Q 1081 -850 1212 -737  Q 1344 -625 1503 -206  L 1606 56  L 191 3500  L 800 3500  L 1894 763  L 2988 3500  L 3597 3500  L 2059 -325  z " transform="scale(0.015625)"/>
      <path id="DejaVuSans-28" d="M 1984 4856  Q 1566 4138 1362 3434  Q 1159 2731 1159 2009  Q 1159 1288 1364 580  Q 1569 -128 1984 -844  L 1484 -844  Q 1016 -109 783 600  Q 550 1309 550 2009  Q 550 2706 781 3412  Q 1013 4119 1484 4856  L 1984 4856  z " transform="scale(0.015625)"/>
      <path id="DejaVuSans-3d" d="M 678 2906  L 4684 2906  L 4684 2381  L 678 2381  L 678 2906  z M 678 1631  L 4684 1631  L 4684 1100  L 678 1100  L 678 1631  z " transform="scale(0.015625)"/>
      <path id="DejaVuSans-6e" d="M 3513 2113  L 3513 0  L 2938 0  L 2938 2094  Q 2938 2591 2744 2837  Q 2550 3084 2163 3084  Q 1697 3084 1428 2787  Q 1159 2491 1159 1978  L 1159 0  L 581 0  L 581 3500  L 1159 3500  L 1159 2956  Q 1366 3272 1645 3428  Q 1925 3584 2291 3584  Q 2894 3584 3203 3211  Q 3513 2838 3513 2113  z " transform="scale(0.015625)"/>
      <path id="DejaVuSans-6f" d="M 1959 3097  Q 1497 3097 1228 2736  Q 959 2375 959 1747  Q 959 1119 1226 758  Q 1494 397 1959 397  Q 2419 397 2687 759  Q 2956 1122 2956 1747  Q 2956 2369 2687 2733  Q 2419 3097 1959 3097  z M 1959 3584  Q 2709 3584 3137 3096  Q 3566 2609 3566 1747  Q 3566 888 3137 398  Q 2709 -91 1959 -91  Q 1206 -91 779 398  Q 353 888 353 1747  Q 353 2609 779 3096  Q 1206 3584 1959 3584  z " transform="scale(0.015625)"/>
      <path id="DejaVuSans-64" d="M 2906 2969  L 2906 4863  L 3481 4863  L 3481 0  L 2906 0  L 2906 525  Q 2725 213 2448 61  Q 2172 -91 1784 -91  Q 1150 -91 751 415  Q 353 922 353 1747  Q 353 2572 751 3078  Q 1150 3584 1784 3584  Q 2172 3584 2448 3432  Q 2725 3281 2906 2969  z M 947 1747  Q 947 1113 1208 752  Q 1469 391 1925 391  Q 2381 391 2643 752  Q 2906 1113 2906 1747  Q 2906 2381 2643 2742  Q 2381 3103 1925 3103  Q 1469 3103 1208 2742  Q 947 2381 947 1747  z " transform="scale(0.015625)"/>
      <path id="DejaVuSans-2c" d="M 750 794  L 1409 794  L 1409 256  L 897 -744  L 494 -744  L 750 256  L 750 794  z " transform="scale(0.015625)"/>
      <path id="DejaVuSans-66" d="M 2375 4863  L 2375 4384  L 1825 4384  Q 1516 4384 1395 4259  Q 1275 4134 1275 3809  L 1275 3500  L 2222 3500  L 2222 3053  L 1275 3053  L 1275 0  L 697 0  L 697 3053  L 147 3053  L 147 3500  L 697 3500  L 697 3744  Q 697 4328 969 4595  Q 1241 4863 1831 4863  L 2375 4863  z " transform="scale(0.015625)"/>
      <path id="DejaVuSans-75" d="M 544 1381  L 544 3500  L 1119 3500  L 1119 1403  Q 1119 906 1312 657  Q 1506 409 1894 409  Q 2359 409 2629 706  Q 2900 1003 2900 1516  L 2900 3500  L 3475 3500  L 3475 0  L 2900 0  L 2900 538  Q 2691 219 2414 64  Q 2138 -91 1772 -91  Q 1169 -91 856 284  Q 544 659 544 1381  z M 1991 3584  L 1991 3584  z " transform="scale(0.015625)"/>
      <path id="DejaVuSans-73" d="M 2834 3397  L 2834 2853  Q 2591 2978 2328 3040  Q 2066 3103 1784 3103  Q 1356 3103 1142 2972  Q 928 2841 928 2578  Q 928 2378 1081 2264  Q 1234 2150 1697 2047  L 1894 2003  Q 2506 1872 2764 1633  Q 3022 1394 3022 966  Q 3022 478 2636 193  Q 2250 -91 1575 -91  Q 1294 -91 989 -36  Q 684 19 347 128  L 347 722  Q 666 556 975 473  Q 1284 391 1588 391  Q 1994 391 2212 530  Q 2431 669 2431 922  Q 2431 1156 2273 1281  Q 2116 1406 1581 1522  L 1381 1569  Q 847 1681 609 1914  Q 372 2147 372 2553  Q 372 3047 722 3315  Q 1072 3584 1716 3584  Q 2034 3584 2315 3537  Q 2597 3491 2834 3397  z " transform="scale(0.015625)"/>
      <path id="DejaVuSans-74" d="M 1172 4494  L 1172 3500  L 2356 3500  L 2356 3053  L 1172 3053  L 1172 1153  Q 1172 725 1289 603  Q 1406 481 1766 481  L 2356 481  L 2356 0  L 1766 0  Q 1100 0 847 248  Q 594 497 594 1153  L 594 3053  L 172 3053  L 172 3500  L 594 3500  L 594 4494  L 1172 4494  z " transform="scale(0.015625)"/>
      <path id="DejaVuSans-70" d="M 1159 525  L 1159 -1331  L 581 -1331  L 581 3500  L 1159 3500  L 1159 2969  Q 1341 3281 1617 3432  Q 1894 3584 2278 3584  Q 2916 3584 3314 3078  Q 3713 2572 3713 1747  Q 3713 922 3314 415  Q 2916 -91 2278 -91  Q 1894 -91 1617 61  Q 1341 213 1159 525  z M 3116 1747  Q 3116 2381 2855 2742  Q 2594 3103 2138 3103  Q 1681 3103 1420 2742  Q 1159 2381 1159 1747  Q 1159 1113 1420 752  Q 1681 391 2138 391  Q 2594 391 2855 752  Q 3116 1113 3116 1747  z " transform="scale(0.015625)"/>
      <path id="DejaVuSans-29" d="M 513 4856  L 1013 4856  Q 1481 4119 1714 3412  Q 1947 2706 1947 2009  Q 1947 1309 1714 600  Q 1481 -109 1013 -844  L 513 -844  Q 928 -128 1133 580  Q 1338 1288 1338 2009  Q 1338 2731 1133 3434  Q 928 4138 513 4856  z " transform="scale(0.015625)"/>
     </defs>
     <use xlink:href="#DejaVuSans-41"/>
     <use xlink:href="#DejaVuSans-76" transform="translate(62.533203 0)"/>
     <use xlink:href="#DejaVuSans-65" transform="translate(121.712891 0)"/>
     <use xlink:href="#DejaVuSans-72" transform="translate(183.236328 0)"/>
     <use xlink:href="#DejaVuSans-61" transform="translate(224.349609 0)"/>
     <use xlink:href="#DejaVuSans-67" transform="translate(285.628906 0)"/>
     <use xlink:href="#DejaVuSans-65" transform="translate(349.105469 0)"/>
     <use xlink:href="#DejaVuSans-20" transform="translate(410.628906 0)"/>
     <use xlink:href="#DejaVuSans-44" transform="translate(442.416016 0)"/>
     <use xlink:href="#DejaVuSans-65" transform="translate(519.417969 0)"/>
     <use xlink:href="#DejaVuSans-6c" transform="translate(580.941406 0)"/>
     <use xlink:href="#DejaVuSans-61" transform="translate(608.724609 0)"/>
     <use xlink:href="#DejaVuSans-79" transform="translate(670.003906 0)"/>
     <use xlink:href="#DejaVuSans-20" transform="translate(729.183594 0)"/>
     <use xlink:href="#DejaVuSans-28" transform="translate(760.970703 0)"/>
     <use xlink:href="#DejaVuSans-30" transform="translate(799.984375 0)"/>
     <use xlink:href="#DejaVuSans-20" transform="translate(863.607422 0)"/>
     <use xlink:href="#DejaVuSans-3d" transform="translate(895.394531 0)"/>
     <use xlink:href="#DejaVuSans-20" transform="translate(979.183594 0)"/>
     <use xlink:href="#DejaVuSans-6e" transform="translate(1010.970703 0)"/>
     <use xlink:href="#DejaVuSans-6f" transform="translate(1074.349609 0)"/>
     <use xlink:href="#DejaVuSans-20" transform="translate(1135.53125 0)"/>
     <use xlink:href="#DejaVuSans-64" transform="translate(1167.318359 0)"/>
     <use xlink:href="#DejaVuSans-65" transform="translate(1230.794922 0)"/>
     <use xlink:href="#DejaVuSans-6c" transform="translate(1292.318359 0)"/>
     <use xlink:href="#DejaVuSans-61" transform="translate(1320.101562 0)"/>
     <use xlink:href="#DejaVuSans-79" transform="translate(1381.380859 0)"/>
     <use xlink:href="#DejaVuSans-2c" transform="translate(1440.560547 0)"/>
     <use xlink:href="#DejaVuSans-20" transform="translate(1472.347656 0)"/>
     <use xlink:href="#DejaVuSans-31" transform="translate(1504.134766 0)"/>
     <use xlink:href="#DejaVuSans-20" transform="translate(1567.757812 0)"/>
     <use xlink:href="#DejaVuSans-3d" transform="translate(1599.544922 0)"/>
     <use xlink:href="#DejaVuSans-20" transform="translate(1683.333984 0)"/>
     <use xlink:href="#DejaVuSans-66" transform="translate(1715.121094 0)"/>
     <use xlink:href="#DejaVuSans-75" transform="translate(1750.326172 0)"/>
     <use xlink:href="#DejaVuSans-6c" transform="translate(1813.705078 0)"/>
     <use xlink:href="#DejaVuSans-6c" transform="translate(1841.488281 0)"/>
     <use xlink:href="#DejaVuSans-20" transform="translate(1869.271484 0)"/>
     <use xlink:href="#DejaVuSans-73" transform="translate(1901.058594 0)"/>
     <use xlink:href="#DejaVuSans-74" transform="translate(1953.158203 0)"/>
     <use xlink:href="#DejaVuSans-6f" transform="translate(1992.367188 0)"/>
     <use xlink:href="#DejaVuSans-70" transform="translate(2053.548828 0)"/>
     <use xlink:href="#DejaVuSans-29" transform="translate(2117.025391 0)"/>
    </g>
   </g>
  </g>
  <g id="axes_2">
   <g id="patch_7">
    <path d="M 64.010684 257.677288  L 1365.091152 257.677288  L 1365.091152 163.996974  L 64.010684 163.996974  z " style="fill: #e5e5e5"/>
   </g>
   <g id="matplotlib.axis_3">
    <g id="xtick_6">
     <g id="line2d_22">
      <path d="M 123.150706 257.677288  L 123.150706 163.996974  " clip-path="url(#pfe381f0cac)" style="fill: none; stroke: #ffffff; stroke-width: 0.8; stroke-linecap: square"/>
     </g>
     <g id="line2d_23">
      <g>
       <use xlink:href="#m67b50e4eb9" x="123.150706" y="257.677288" style="fill: #555555; stroke: #555555; stroke-width: 0.8"/>
      </g>
     </g>
     <g id="text_12">
      <!-- 0 -->
      <g style="fill: #555555" transform="translate(119.969456 272.275725) scale(0.1 -0.1)">
       <use xlink:href="#DejaVuSans-30"/>
      </g>
     </g>
    </g>
    <g id="xtick_7">
     <g id="line2d_24">
      <path d="M 406.795892 257.677288  L 406.795892 163.996974  " clip-path="url(#pfe381f0cac)" style="fill: none; stroke: #ffffff; stroke-width: 0.8; stroke-linecap: square"/>
     </g>
     <g id="line2d_25">
      <g>
       <use xlink:href="#m67b50e4eb9" x="406.795892" y="257.677288" style="fill: #555555; stroke: #555555; stroke-width: 0.8"/>
      </g>
     </g>
     <g id="text_13">
      <!-- 200 -->
      <g style="fill: #555555" transform="translate(397.252142 272.275725) scale(0.1 -0.1)">
       <use xlink:href="#DejaVuSans-32"/>
       <use xlink:href="#DejaVuSans-30" transform="translate(63.623047 0)"/>
       <use xlink:href="#DejaVuSans-30" transform="translate(127.246094 0)"/>
      </g>
     </g>
    </g>
    <g id="xtick_8">
     <g id="line2d_26">
      <path d="M 690.441077 257.677288  L 690.441077 163.996974  " clip-path="url(#pfe381f0cac)" style="fill: none; stroke: #ffffff; stroke-width: 0.8; stroke-linecap: square"/>
     </g>
     <g id="line2d_27">
      <g>
       <use xlink:href="#m67b50e4eb9" x="690.441077" y="257.677288" style="fill: #555555; stroke: #555555; stroke-width: 0.8"/>
      </g>
     </g>
     <g id="text_14">
      <!-- 400 -->
      <g style="fill: #555555" transform="translate(680.897327 272.275725) scale(0.1 -0.1)">
       <use xlink:href="#DejaVuSans-34"/>
       <use xlink:href="#DejaVuSans-30" transform="translate(63.623047 0)"/>
       <use xlink:href="#DejaVuSans-30" transform="translate(127.246094 0)"/>
      </g>
     </g>
    </g>
    <g id="xtick_9">
     <g id="line2d_28">
      <path d="M 974.086263 257.677288  L 974.086263 163.996974  " clip-path="url(#pfe381f0cac)" style="fill: none; stroke: #ffffff; stroke-width: 0.8; stroke-linecap: square"/>
     </g>
     <g id="line2d_29">
      <g>
       <use xlink:href="#m67b50e4eb9" x="974.086263" y="257.677288" style="fill: #555555; stroke: #555555; stroke-width: 0.8"/>
      </g>
     </g>
     <g id="text_15">
      <!-- 600 -->
      <g style="fill: #555555" transform="translate(964.542513 272.275725) scale(0.1 -0.1)">
       <use xlink:href="#DejaVuSans-36"/>
       <use xlink:href="#DejaVuSans-30" transform="translate(63.623047 0)"/>
       <use xlink:href="#DejaVuSans-30" transform="translate(127.246094 0)"/>
      </g>
     </g>
    </g>
    <g id="xtick_10">
     <g id="line2d_30">
      <path d="M 1257.731449 257.677288  L 1257.731449 163.996974  " clip-path="url(#pfe381f0cac)" style="fill: none; stroke: #ffffff; stroke-width: 0.8; stroke-linecap: square"/>
     </g>
     <g id="line2d_31">
      <g>
       <use xlink:href="#m67b50e4eb9" x="1257.731449" y="257.677288" style="fill: #555555; stroke: #555555; stroke-width: 0.8"/>
      </g>
     </g>
     <g id="text_16">
      <!-- 800 -->
      <g style="fill: #555555" transform="translate(1248.187699 272.275725) scale(0.1 -0.1)">
       <use xlink:href="#DejaVuSans-38"/>
       <use xlink:href="#DejaVuSans-30" transform="translate(63.623047 0)"/>
       <use xlink:href="#DejaVuSans-30" transform="translate(127.246094 0)"/>
      </g>
     </g>
    </g>
   </g>
   <g id="matplotlib.axis_4">
    <g id="ytick_6">
     <g id="line2d_32">
      <path d="M 64.010684 253.419092  L 1365.091152 253.419092  " clip-path="url(#pfe381f0cac)" style="fill: none; stroke: #ffffff; stroke-width: 0.8; stroke-linecap: square"/>
     </g>
     <g id="line2d_33">
      <g>
       <use xlink:href="#mb692f5eb23" x="64.010684" y="253.419092" style="fill: #555555; stroke: #555555; stroke-width: 0.8"/>
      </g>
     </g>
     <g id="text_17">
      <!-- 0.0 -->
      <g style="fill: #555555" transform="translate(41.107559 257.21831) scale(0.1 -0.1)">
       <use xlink:href="#DejaVuSans-30"/>
       <use xlink:href="#DejaVuSans-2e" transform="translate(63.623047 0)"/>
       <use xlink:href="#DejaVuSans-30" transform="translate(95.410156 0)"/>
      </g>
     </g>
    </g>
    <g id="ytick_7">
     <g id="line2d_34">
      <path d="M 64.010684 216.159876  L 1365.091152 216.159876  " clip-path="url(#pfe381f0cac)" style="fill: none; stroke: #ffffff; stroke-width: 0.8; stroke-linecap: square"/>
     </g>
     <g id="line2d_35">
      <g>
       <use xlink:href="#mb692f5eb23" x="64.010684" y="216.159876" style="fill: #555555; stroke: #555555; stroke-width: 0.8"/>
      </g>
     </g>
     <g id="text_18">
      <!-- 0.5 -->
      <g style="fill: #555555" transform="translate(41.107559 219.959095) scale(0.1 -0.1)">
       <use xlink:href="#DejaVuSans-30"/>
       <use xlink:href="#DejaVuSans-2e" transform="translate(63.623047 0)"/>
       <use xlink:href="#DejaVuSans-35" transform="translate(95.410156 0)"/>
      </g>
     </g>
    </g>
    <g id="ytick_8">
     <g id="line2d_36">
      <path d="M 64.010684 178.90066  L 1365.091152 178.90066  " clip-path="url(#pfe381f0cac)" style="fill: none; stroke: #ffffff; stroke-width: 0.8; stroke-linecap: square"/>
     </g>
     <g id="line2d_37">
      <g>
       <use xlink:href="#mb692f5eb23" x="64.010684" y="178.90066" style="fill: #555555; stroke: #555555; stroke-width: 0.8"/>
      </g>
     </g>
     <g id="text_19">
      <!-- 1.0 -->
      <g style="fill: #555555" transform="translate(41.107559 182.699879) scale(0.1 -0.1)">
       <use xlink:href="#DejaVuSans-31"/>
       <use xlink:href="#DejaVuSans-2e" transform="translate(63.623047 0)"/>
       <use xlink:href="#DejaVuSans-30" transform="translate(95.410156 0)"/>
      </g>
     </g>
    </g>
   </g>
   <g id="line2d_38">
    <path d="M 123.150706 253.419092  L 145.842321 253.419092  L 147.260547 242.773601  L 171.370387 242.773601  L 172.788613 232.128111  L 263.555073 232.128111  L 266.391525 253.419092  L 320.28411 253.419092  L 321.702336 242.773601  L 325.957014 242.773601  L 327.37524 232.128111  L 462.106703 232.128111  L 463.524929 221.482621  L 464.943155 232.128111  L 477.707188 232.128111  L 479.125414 221.482621  L 497.562351 221.482621  L 500.398803 242.773601  L 506.071707 242.773601  L 507.489933 232.128111  L 508.908158 232.128111  L 510.326384 221.482621  L 515.999288 221.482621  L 517.417514 210.837131  L 525.92687 210.837131  L 527.345096 200.191641  L 528.763321 210.837131  L 537.272677 210.837131  L 538.690903 200.191641  L 542.945581 200.191641  L 544.363807 189.54615  L 552.873162 189.54615  L 554.291388 178.90066  L 557.12784 178.90066  L 558.546066 168.25517  L 589.747036 168.25517  L 592.583488 189.54615  L 681.931722 189.54615  L 684.768174 210.837131  L 730.151403 210.837131  L 731.569629 200.191641  L 734.406081 242.773601  L 737.242533 242.773601  L 738.660759 232.128111  L 774.116407 232.128111  L 775.534633 221.482621  L 776.952859 221.482621  L 778.371085 210.837131  L 915.939 210.837131  L 918.775452 232.128111  L 965.576908 232.128111  L 968.41336 253.419092  L 1005.287234 253.419092  L 1006.70546 242.773601  L 1010.960137 242.773601  L 1012.378363 232.128111  L 1199.584186 232.128111  L 1202.420638 253.419092  L 1305.951131 253.419092  L 1305.951131 253.419092  " clip-path="url(#pfe381f0cac)" style="fill: none; stroke: #e24a33; stroke-width: 1.5; stroke-linecap: square"/>
   </g>
   <g id="patch_8">
    <path d="M 64.010684 257.677288  L 64.010684 163.996974  " style="fill: none; stroke: #ffffff; stroke-linejoin: miter; stroke-linecap: square"/>
   </g>
   <g id="patch_9">
    <path d="M 1365.091152 257.677288  L 1365.091152 163.996974  " style="fill: none; stroke: #ffffff; stroke-linejoin: miter; stroke-linecap: square"/>
   </g>
   <g id="patch_10">
    <path d="M 64.010684 257.677288  L 1365.091152 257.677288  " style="fill: none; stroke: #ffffff; stroke-linejoin: miter; stroke-linecap: square"/>
   </g>
   <g id="patch_11">
    <path d="M 64.010684 163.996974  L 1365.091152 163.996974  " style="fill: none; stroke: #ffffff; stroke-linejoin: miter; stroke-linecap: square"/>
   </g>
   <g id="text_20">
    <!-- Average Queue Length (incoming lanes) -->
    <g transform="translate(569.491168 157.996974) scale(0.144 -0.144)">
     <defs>
      <path id="DejaVuSans-51" d="M 2522 4238  Q 1834 4238 1429 3725  Q 1025 3213 1025 2328  Q 1025 1447 1429 934  Q 1834 422 2522 422  Q 3209 422 3611 934  Q 4013 1447 4013 2328  Q 4013 3213 3611 3725  Q 3209 4238 2522 4238  z M 3406 84  L 4238 -825  L 3475 -825  L 2784 -78  Q 2681 -84 2626 -87  Q 2572 -91 2522 -91  Q 1538 -91 948 567  Q 359 1225 359 2328  Q 359 3434 948 4092  Q 1538 4750 2522 4750  Q 3503 4750 4090 4092  Q 4678 3434 4678 2328  Q 4678 1516 4351 937  Q 4025 359 3406 84  z " transform="scale(0.015625)"/>
      <path id="DejaVuSans-4c" d="M 628 4666  L 1259 4666  L 1259 531  L 3531 531  L 3531 0  L 628 0  L 628 4666  z " transform="scale(0.015625)"/>
      <path id="DejaVuSans-68" d="M 3513 2113  L 3513 0  L 2938 0  L 2938 2094  Q 2938 2591 2744 2837  Q 2550 3084 2163 3084  Q 1697 3084 1428 2787  Q 1159 2491 1159 1978  L 1159 0  L 581 0  L 581 4863  L 1159 4863  L 1159 2956  Q 1366 3272 1645 3428  Q 1925 3584 2291 3584  Q 2894 3584 3203 3211  Q 3513 2838 3513 2113  z " transform="scale(0.015625)"/>
      <path id="DejaVuSans-69" d="M 603 3500  L 1178 3500  L 1178 0  L 603 0  L 603 3500  z M 603 4863  L 1178 4863  L 1178 4134  L 603 4134  L 603 4863  z " transform="scale(0.015625)"/>
      <path id="DejaVuSans-63" d="M 3122 3366  L 3122 2828  Q 2878 2963 2633 3030  Q 2388 3097 2138 3097  Q 1578 3097 1268 2742  Q 959 2388 959 1747  Q 959 1106 1268 751  Q 1578 397 2138 397  Q 2388 397 2633 464  Q 2878 531 3122 666  L 3122 134  Q 2881 22 2623 -34  Q 2366 -91 2075 -91  Q 1284 -91 818 406  Q 353 903 353 1747  Q 353 2603 823 3093  Q 1294 3584 2113 3584  Q 2378 3584 2631 3529  Q 2884 3475 3122 3366  z " transform="scale(0.015625)"/>
      <path id="DejaVuSans-6d" d="M 3328 2828  Q 3544 3216 3844 3400  Q 4144 3584 4550 3584  Q 5097 3584 5394 3201  Q 5691 2819 5691 2113  L 5691 0  L 5113 0  L 5113 2094  Q 5113 2597 4934 2840  Q 4756 3084 4391 3084  Q 3944 3084 3684 2787  Q 3425 2491 3425 1978  L 3425 0  L 2847 0  L 2847 2094  Q 2847 2600 2669 2842  Q 2491 3084 2119 3084  Q 1678 3084 1418 2786  Q 1159 2488 1159 1978  L 1159 0  L 581 0  L 581 3500  L 1159 3500  L 1159 2956  Q 1356 3278 1631 3431  Q 1906 3584 2284 3584  Q 2666 3584 2933 3390  Q 3200 3197 3328 2828  z " transform="scale(0.015625)"/>
     </defs>
     <use xlink:href="#DejaVuSans-41"/>
     <use xlink:href="#DejaVuSans-76" transform="translate(62.533203 0)"/>
     <use xlink:href="#DejaVuSans-65" transform="translate(121.712891 0)"/>
     <use xlink:href="#DejaVuSans-72" transform="translate(183.236328 0)"/>
     <use xlink:href="#DejaVuSans-61" transform="translate(224.349609 0)"/>
     <use xlink:href="#DejaVuSans-67" transform="translate(285.628906 0)"/>
     <use xlink:href="#DejaVuSans-65" transform="translate(349.105469 0)"/>
     <use xlink:href="#DejaVuSans-20" transform="translate(410.628906 0)"/>
     <use xlink:href="#DejaVuSans-51" transform="translate(442.416016 0)"/>
     <use xlink:href="#DejaVuSans-75" transform="translate(521.126953 0)"/>
     <use xlink:href="#DejaVuSans-65" transform="translate(584.505859 0)"/>
     <use xlink:href="#DejaVuSans-75" transform="translate(646.029297 0)"/>
     <use xlink:href="#DejaVuSans-65" transform="translate(709.408203 0)"/>
     <use xlink:href="#DejaVuSans-20" transform="translate(770.931641 0)"/>
     <use xlink:href="#DejaVuSans-4c" transform="translate(802.71875 0)"/>
     <use xlink:href="#DejaVuSans-65" transform="translate(856.681641 0)"/>
     <use xlink:href="#DejaVuSans-6e" transform="translate(918.205078 0)"/>
     <use xlink:href="#DejaVuSans-67" transform="translate(981.583984 0)"/>
     <use xlink:href="#DejaVuSans-74" transform="translate(1045.060547 0)"/>
     <use xlink:href="#DejaVuSans-68" transform="translate(1084.269531 0)"/>
     <use xlink:href="#DejaVuSans-20" transform="translate(1147.648438 0)"/>
     <use xlink:href="#DejaVuSans-28" transform="translate(1179.435547 0)"/>
     <use xlink:href="#DejaVuSans-69" transform="translate(1218.449219 0)"/>
     <use xlink:href="#DejaVuSans-6e" transform="translate(1246.232422 0)"/>
     <use xlink:href="#DejaVuSans-63" transform="translate(1309.611328 0)"/>
     <use xlink:href="#DejaVuSans-6f" transform="translate(1364.591797 0)"/>
     <use xlink:href="#DejaVuSans-6d" transform="translate(1425.773438 0)"/>
     <use xlink:href="#DejaVuSans-69" transform="translate(1523.185547 0)"/>
     <use xlink:href="#DejaVuSans-6e" transform="translate(1550.96875 0)"/>
     <use xlink:href="#DejaVuSans-67" transform="translate(1614.347656 0)"/>
     <use xlink:href="#DejaVuSans-20" transform="translate(1677.824219 0)"/>
     <use xlink:href="#DejaVuSans-6c" transform="translate(1709.611328 0)"/>
     <use xlink:href="#DejaVuSans-61" transform="translate(1737.394531 0)"/>
     <use xlink:href="#DejaVuSans-6e" transform="translate(1798.673828 0)"/>
     <use xlink:href="#DejaVuSans-65" transform="translate(1862.052734 0)"/>
     <use xlink:href="#DejaVuSans-73" transform="translate(1923.576172 0)"/>
     <use xlink:href="#DejaVuSans-29" transform="translate(1975.675781 0)"/>
    </g>
   </g>
  </g>
  <g id="axes_3">
   <g id="patch_12">
    <path d="M 64.010684 394.82396  L 1365.091152 394.82396  L 1365.091152 301.143646  L 64.010684 301.143646  z " style="fill: #e5e5e5"/>
   </g>
   <g id="matplotlib.axis_5">
    <g id="xtick_11">
     <g id="line2d_39">
      <path d="M 123.150706 394.82396  L 123.150706 301.143646  " clip-path="url(#pc735a02b79)" style="fill: none; stroke: #ffffff; stroke-width: 0.8; stroke-linecap: square"/>
     </g>
     <g id="line2d_40">
      <g>
       <use xlink:href="#m67b50e4eb9" x="123.150706" y="394.82396" style="fill: #555555; stroke: #555555; stroke-width: 0.8"/>
      </g>
     </g>
     <g id="text_21">
      <!-- 0 -->
      <g style="fill: #555555" transform="translate(119.969456 409.422397) scale(0.1 -0.1)">
       <use xlink:href="#DejaVuSans-30"/>
      </g>
     </g>
    </g>
    <g id="xtick_12">
     <g id="line2d_41">
      <path d="M 406.795892 394.82396  L 406.795892 301.143646  " clip-path="url(#pc735a02b79)" style="fill: none; stroke: #ffffff; stroke-width: 0.8; stroke-linecap: square"/>
     </g>
     <g id="line2d_42">
      <g>
       <use xlink:href="#m67b50e4eb9" x="406.795892" y="394.82396" style="fill: #555555; stroke: #555555; stroke-width: 0.8"/>
      </g>
     </g>
     <g id="text_22">
      <!-- 200 -->
      <g style="fill: #555555" transform="translate(397.252142 409.422397) scale(0.1 -0.1)">
       <use xlink:href="#DejaVuSans-32"/>
       <use xlink:href="#DejaVuSans-30" transform="translate(63.623047 0)"/>
       <use xlink:href="#DejaVuSans-30" transform="translate(127.246094 0)"/>
      </g>
     </g>
    </g>
    <g id="xtick_13">
     <g id="line2d_43">
      <path d="M 690.441077 394.82396  L 690.441077 301.143646  " clip-path="url(#pc735a02b79)" style="fill: none; stroke: #ffffff; stroke-width: 0.8; stroke-linecap: square"/>
     </g>
     <g id="line2d_44">
      <g>
       <use xlink:href="#m67b50e4eb9" x="690.441077" y="394.82396" style="fill: #555555; stroke: #555555; stroke-width: 0.8"/>
      </g>
     </g>
     <g id="text_23">
      <!-- 400 -->
      <g style="fill: #555555" transform="translate(680.897327 409.422397) scale(0.1 -0.1)">
       <use xlink:href="#DejaVuSans-34"/>
       <use xlink:href="#DejaVuSans-30" transform="translate(63.623047 0)"/>
       <use xlink:href="#DejaVuSans-30" transform="translate(127.246094 0)"/>
      </g>
     </g>
    </g>
    <g id="xtick_14">
     <g id="line2d_45">
      <path d="M 974.086263 394.82396  L 974.086263 301.143646  " clip-path="url(#pc735a02b79)" style="fill: none; stroke: #ffffff; stroke-width: 0.8; stroke-linecap: square"/>
     </g>
     <g id="line2d_46">
      <g>
       <use xlink:href="#m67b50e4eb9" x="974.086263" y="394.82396" style="fill: #555555; stroke: #555555; stroke-width: 0.8"/>
      </g>
     </g>
     <g id="text_24">
      <!-- 600 -->
      <g style="fill: #555555" transform="translate(964.542513 409.422397) scale(0.1 -0.1)">
       <use xlink:href="#DejaVuSans-36"/>
       <use xlink:href="#DejaVuSans-30" transform="translate(63.623047 0)"/>
       <use xlink:href="#DejaVuSans-30" transform="translate(127.246094 0)"/>
      </g>
     </g>
    </g>
    <g id="xtick_15">
     <g id="line2d_47">
      <path d="M 1257.731449 394.82396  L 1257.731449 301.143646  " clip-path="url(#pc735a02b79)" style="fill: none; stroke: #ffffff; stroke-width: 0.8; stroke-linecap: square"/>
     </g>
     <g id="line2d_48">
      <g>
       <use xlink:href="#m67b50e4eb9" x="1257.731449" y="394.82396" style="fill: #555555; stroke: #555555; stroke-width: 0.8"/>
      </g>
     </g>
     <g id="text_25">
      <!-- 800 -->
      <g style="fill: #555555" transform="translate(1248.187699 409.422397) scale(0.1 -0.1)">
       <use xlink:href="#DejaVuSans-38"/>
       <use xlink:href="#DejaVuSans-30" transform="translate(63.623047 0)"/>
       <use xlink:href="#DejaVuSans-30" transform="translate(127.246094 0)"/>
      </g>
     </g>
    </g>
   </g>
   <g id="matplotlib.axis_6">
    <g id="ytick_9">
     <g id="line2d_49">
      <path d="M 64.010684 390.565764  L 1365.091152 390.565764  " clip-path="url(#pc735a02b79)" style="fill: none; stroke: #ffffff; stroke-width: 0.8; stroke-linecap: square"/>
     </g>
     <g id="line2d_50">
      <g>
       <use xlink:href="#mb692f5eb23" x="64.010684" y="390.565764" style="fill: #555555; stroke: #555555; stroke-width: 0.8"/>
      </g>
     </g>
     <g id="text_26">
      <!-- 0 -->
      <g style="fill: #555555" transform="translate(50.648184 394.364982) scale(0.1 -0.1)">
       <use xlink:href="#DejaVuSans-30"/>
      </g>
     </g>
    </g>
    <g id="ytick_10">
     <g id="line2d_51">
      <path d="M 64.010684 362.17779  L 1365.091152 362.17779  " clip-path="url(#pc735a02b79)" style="fill: none; stroke: #ffffff; stroke-width: 0.8; stroke-linecap: square"/>
     </g>
     <g id="line2d_52">
      <g>
       <use xlink:href="#mb692f5eb23" x="64.010684" y="362.17779" style="fill: #555555; stroke: #555555; stroke-width: 0.8"/>
      </g>
     </g>
     <g id="text_27">
      <!-- 1 -->
      <g style="fill: #555555" transform="translate(50.648184 365.977009) scale(0.1 -0.1)">
       <use xlink:href="#DejaVuSans-31"/>
      </g>
     </g>
    </g>
    <g id="ytick_11">
     <g id="line2d_53">
      <path d="M 64.010684 333.789816  L 1365.091152 333.789816  " clip-path="url(#pc735a02b79)" style="fill: none; stroke: #ffffff; stroke-width: 0.8; stroke-linecap: square"/>
     </g>
     <g id="line2d_54">
      <g>
       <use xlink:href="#mb692f5eb23" x="64.010684" y="333.789816" style="fill: #555555; stroke: #555555; stroke-width: 0.8"/>
      </g>
     </g>
     <g id="text_28">
      <!-- 2 -->
      <g style="fill: #555555" transform="translate(50.648184 337.589035) scale(0.1 -0.1)">
       <use xlink:href="#DejaVuSans-32"/>
      </g>
     </g>
    </g>
    <g id="ytick_12">
     <g id="line2d_55">
      <path d="M 64.010684 305.401842  L 1365.091152 305.401842  " clip-path="url(#pc735a02b79)" style="fill: none; stroke: #ffffff; stroke-width: 0.8; stroke-linecap: square"/>
     </g>
     <g id="line2d_56">
      <g>
       <use xlink:href="#mb692f5eb23" x="64.010684" y="305.401842" style="fill: #555555; stroke: #555555; stroke-width: 0.8"/>
      </g>
     </g>
     <g id="text_29">
      <!-- 3 -->
      <g style="fill: #555555" transform="translate(50.648184 309.201061) scale(0.1 -0.1)">
       <defs>
        <path id="DejaVuSans-33" d="M 2597 2516  Q 3050 2419 3304 2112  Q 3559 1806 3559 1356  Q 3559 666 3084 287  Q 2609 -91 1734 -91  Q 1441 -91 1130 -33  Q 819 25 488 141  L 488 750  Q 750 597 1062 519  Q 1375 441 1716 441  Q 2309 441 2620 675  Q 2931 909 2931 1356  Q 2931 1769 2642 2001  Q 2353 2234 1838 2234  L 1294 2234  L 1294 2753  L 1863 2753  Q 2328 2753 2575 2939  Q 2822 3125 2822 3475  Q 2822 3834 2567 4026  Q 2313 4219 1838 4219  Q 1578 4219 1281 4162  Q 984 4106 628 3988  L 628 4550  Q 988 4650 1302 4700  Q 1616 4750 1894 4750  Q 2613 4750 3031 4423  Q 3450 4097 3450 3541  Q 3450 3153 3228 2886  Q 3006 2619 2597 2516  z " transform="scale(0.015625)"/>
       </defs>
       <use xlink:href="#DejaVuSans-33"/>
      </g>
     </g>
    </g>
   </g>
   <g id="line2d_57">
    <path d="M 123.150706 390.565764  L 267.80975 390.565764  L 269.227976 362.17779  L 270.646202 362.17779  L 272.064428 333.789816  L 273.482654 362.17779  L 276.319106 362.17779  L 277.737332 333.789816  L 279.155558 362.17779  L 280.573784 333.789816  L 281.99201 362.17779  L 283.410236 333.789816  L 284.828462 362.17779  L 289.083139 362.17779  L 290.501365 333.789816  L 291.919591 362.17779  L 293.337817 362.17779  L 294.756043 390.565764  L 297.592495 390.565764  L 299.010721 362.17779  L 300.428947 362.17779  L 301.847173 390.565764  L 503.235255 390.565764  L 504.653481 362.17779  L 506.071707 362.17779  L 507.489933 333.789816  L 508.908158 333.789816  L 510.326384 362.17779  L 511.74461 333.789816  L 513.162836 362.17779  L 520.253966 362.17779  L 521.672192 305.401842  L 523.090418 362.17779  L 524.508644 333.789816  L 525.92687 362.17779  L 527.345096 333.789816  L 530.181547 333.789816  L 531.599773 362.17779  L 534.436225 362.17779  L 535.854451 333.789816  L 538.690903 390.565764  L 548.618484 390.565764  L 550.03671 362.17779  L 551.454936 390.565764  L 552.873162 362.17779  L 554.291388 390.565764  L 565.637196 390.565764  L 567.055422 362.17779  L 568.473647 390.565764  L 574.146551 390.565764  L 575.564777 362.17779  L 576.983003 390.565764  L 686.1864 390.565764  L 687.604626 362.17779  L 689.022851 390.565764  L 693.277529 390.565764  L 694.695755 362.17779  L 696.113981 390.565764  L 698.950433 390.565764  L 700.368659 362.17779  L 701.786885 390.565764  L 703.205111 362.17779  L 704.623337 390.565764  L 706.041563 362.17779  L 707.459789 390.565764  L 708.878014 362.17779  L 710.29624 390.565764  L 711.714466 362.17779  L 713.132692 390.565764  L 714.550918 390.565764  L 715.969144 362.17779  L 717.38737 390.565764  L 718.805596 362.17779  L 720.223822 390.565764  L 721.642048 362.17779  L 723.060274 390.565764  L 724.4785 362.17779  L 725.896726 390.565764  L 735.824307 390.565764  L 737.242533 333.789816  L 738.660759 362.17779  L 740.078985 305.401842  L 741.497211 362.17779  L 742.915437 333.789816  L 744.333663 362.17779  L 745.751889 333.789816  L 747.170115 362.17779  L 748.58834 333.789816  L 752.843018 333.789816  L 754.261244 362.17779  L 755.67947 333.789816  L 757.097696 333.789816  L 758.515922 362.17779  L 761.352374 362.17779  L 762.7706 390.565764  L 764.188826 390.565764  L 765.607052 362.17779  L 767.025278 362.17779  L 768.443504 390.565764  L 921.611904 390.565764  L 923.03013 362.17779  L 924.448356 390.565764  L 925.866582 362.17779  L 927.284808 390.565764  L 969.831585 390.565764  L 971.249811 362.17779  L 972.668037 362.17779  L 974.086263 333.789816  L 975.504489 362.17779  L 976.922715 362.17779  L 978.340941 390.565764  L 979.759167 362.17779  L 984.013845 362.17779  L 985.432071 390.565764  L 986.850297 390.565764  L 988.268523 362.17779  L 989.686748 390.565764  L 991.104974 390.565764  L 992.5232 362.17779  L 993.941426 362.17779  L 995.359652 390.565764  L 996.777878 390.565764  L 998.196104 362.17779  L 999.61433 362.17779  L 1001.032556 390.565764  L 1002.450782 362.17779  L 1003.869008 362.17779  L 1005.287234 390.565764  L 1203.838864 390.565764  L 1205.25709 362.17779  L 1212.348219 362.17779  L 1213.766445 390.565764  L 1215.184671 362.17779  L 1218.021123 362.17779  L 1219.439349 390.565764  L 1220.857575 390.565764  L 1222.275801 362.17779  L 1223.694027 362.17779  L 1225.112253 390.565764  L 1305.951131 390.565764  L 1305.951131 390.565764  " clip-path="url(#pc735a02b79)" style="fill: none; stroke: #e24a33; stroke-width: 1.5; stroke-linecap: square"/>
   </g>
   <g id="patch_13">
    <path d="M 64.010684 394.82396  L 64.010684 301.143646  " style="fill: none; stroke: #ffffff; stroke-linejoin: miter; stroke-linecap: square"/>
   </g>
   <g id="patch_14">
    <path d="M 1365.091152 394.82396  L 1365.091152 301.143646  " style="fill: none; stroke: #ffffff; stroke-linejoin: miter; stroke-linecap: square"/>
   </g>
   <g id="patch_15">
    <path d="M 64.010684 394.82396  L 1365.091152 394.82396  " style="fill: none; stroke: #ffffff; stroke-linejoin: miter; stroke-linecap: square"/>
   </g>
   <g id="patch_16">
    <path d="M 64.010684 301.143646  L 1365.091152 301.143646  " style="fill: none; stroke: #ffffff; stroke-linejoin: miter; stroke-linecap: square"/>
   </g>
   <g id="text_30">
    <!-- Vehicles Passing (Throughput) -->
    <g transform="translate(605.972668 295.143646) scale(0.144 -0.144)">
     <defs>
      <path id="DejaVuSans-56" d="M 1831 0  L 50 4666  L 709 4666  L 2188 738  L 3669 4666  L 4325 4666  L 2547 0  L 1831 0  z " transform="scale(0.015625)"/>
      <path id="DejaVuSans-50" d="M 1259 4147  L 1259 2394  L 2053 2394  Q 2494 2394 2734 2622  Q 2975 2850 2975 3272  Q 2975 3691 2734 3919  Q 2494 4147 2053 4147  L 1259 4147  z M 628 4666  L 2053 4666  Q 2838 4666 3239 4311  Q 3641 3956 3641 3272  Q 3641 2581 3239 2228  Q 2838 1875 2053 1875  L 1259 1875  L 1259 0  L 628 0  L 628 4666  z " transform="scale(0.015625)"/>
      <path id="DejaVuSans-54" d="M -19 4666  L 3928 4666  L 3928 4134  L 2272 4134  L 2272 0  L 1638 0  L 1638 4134  L -19 4134  L -19 4666  z " transform="scale(0.015625)"/>
     </defs>
     <use xlink:href="#DejaVuSans-56"/>
     <use xlink:href="#DejaVuSans-65" transform="translate(60.658203 0)"/>
     <use xlink:href="#DejaVuSans-68" transform="translate(122.181641 0)"/>
     <use xlink:href="#DejaVuSans-69" transform="translate(185.560547 0)"/>
     <use xlink:href="#DejaVuSans-63" transform="translate(213.34375 0)"/>
     <use xlink:href="#DejaVuSans-6c" transform="translate(268.324219 0)"/>
     <use xlink:href="#DejaVuSans-65" transform="translate(296.107422 0)"/>
     <use xlink:href="#DejaVuSans-73" transform="translate(357.630859 0)"/>
     <use xlink:href="#DejaVuSans-20" transform="translate(409.730469 0)"/>
     <use xlink:href="#DejaVuSans-50" transform="translate(441.517578 0)"/>
     <use xlink:href="#DejaVuSans-61" transform="translate(497.320312 0)"/>
     <use xlink:href="#DejaVuSans-73" transform="translate(558.599609 0)"/>
     <use xlink:href="#DejaVuSans-73" transform="translate(610.699219 0)"/>
     <use xlink:href="#DejaVuSans-69" transform="translate(662.798828 0)"/>
     <use xlink:href="#DejaVuSans-6e" transform="translate(690.582031 0)"/>
     <use xlink:href="#DejaVuSans-67" transform="translate(753.960938 0)"/>
     <use xlink:href="#DejaVuSans-20" transform="translate(817.4375 0)"/>
     <use xlink:href="#DejaVuSans-28" transform="translate(849.224609 0)"/>
     <use xlink:href="#DejaVuSans-54" transform="translate(888.238281 0)"/>
     <use xlink:href="#DejaVuSans-68" transform="translate(949.322266 0)"/>
     <use xlink:href="#DejaVuSans-72" transform="translate(1012.701172 0)"/>
     <use xlink:href="#DejaVuSans-6f" transform="translate(1051.564453 0)"/>
     <use xlink:href="#DejaVuSans-75" transform="translate(1112.746094 0)"/>
     <use xlink:href="#DejaVuSans-67" transform="translate(1176.125 0)"/>
     <use xlink:href="#DejaVuSans-68" transform="translate(1239.601562 0)"/>
     <use xlink:href="#DejaVuSans-70" transform="translate(1302.980469 0)"/>
     <use xlink:href="#DejaVuSans-75" transform="translate(1366.457031 0)"/>
     <use xlink:href="#DejaVuSans-74" transform="translate(1429.835938 0)"/>
     <use xlink:href="#DejaVuSans-29" transform="translate(1469.044922 0)"/>
    </g>
   </g>
  </g>
  <g id="axes_4">
   <g id="patch_17">
    <path d="M 64.010684 531.970632  L 1365.091152 531.970632  L 1365.091152 438.290318  L 64.010684 438.290318  z " style="fill: #e5e5e5"/>
   </g>
   <g id="matplotlib.axis_7">
    <g id="xtick_16">
     <g id="line2d_58">
      <path d="M 123.150706 531.970632  L 123.150706 438.290318  " clip-path="url(#p7cb2576478)" style="fill: none; stroke: #ffffff; stroke-width: 0.8; stroke-linecap: square"/>
     </g>
     <g id="line2d_59">
      <g>
       <use xlink:href="#m67b50e4eb9" x="123.150706" y="531.970632" style="fill: #555555; stroke: #555555; stroke-width: 0.8"/>
      </g>
     </g>
     <g id="text_31">
      <!-- 0 -->
      <g style="fill: #555555" transform="translate(119.969456 546.569069) scale(0.1 -0.1)">
       <use xlink:href="#DejaVuSans-30"/>
      </g>
     </g>
    </g>
    <g id="xtick_17">
     <g id="line2d_60">
      <path d="M 406.795892 531.970632  L 406.795892 438.290318  " clip-path="url(#p7cb2576478)" style="fill: none; stroke: #ffffff; stroke-width: 0.8; stroke-linecap: square"/>
     </g>
     <g id="line2d_61">
      <g>
       <use xlink:href="#m67b50e4eb9" x="406.795892" y="531.970632" style="fill: #555555; stroke: #555555; stroke-width: 0.8"/>
      </g>
     </g>
     <g id="text_32">
      <!-- 200 -->
      <g style="fill: #555555" transform="translate(397.252142 546.569069) scale(0.1 -0.1)">
       <use xlink:href="#DejaVuSans-32"/>
       <use xlink:href="#DejaVuSans-30" transform="translate(63.623047 0)"/>
       <use xlink:href="#DejaVuSans-30" transform="translate(127.246094 0)"/>
      </g>
     </g>
    </g>
    <g id="xtick_18">
     <g id="line2d_62">
      <path d="M 690.441077 531.970632  L 690.441077 438.290318  " clip-path="url(#p7cb2576478)" style="fill: none; stroke: #ffffff; stroke-width: 0.8; stroke-linecap: square"/>
     </g>
     <g id="line2d_63">
      <g>
       <use xlink:href="#m67b50e4eb9" x="690.441077" y="531.970632" style="fill: #555555; stroke: #555555; stroke-width: 0.8"/>
      </g>
     </g>
     <g id="text_33">
      <!-- 400 -->
      <g style="fill: #555555" transform="translate(680.897327 546.569069) scale(0.1 -0.1)">
       <use xlink:href="#DejaVuSans-34"/>
       <use xlink:href="#DejaVuSans-30" transform="translate(63.623047 0)"/>
       <use xlink:href="#DejaVuSans-30" transform="translate(127.246094 0)"/>
      </g>
     </g>
    </g>
    <g id="xtick_19">
     <g id="line2d_64">
      <path d="M 974.086263 531.970632  L 974.086263 438.290318  " clip-path="url(#p7cb2576478)" style="fill: none; stroke: #ffffff; stroke-width: 0.8; stroke-linecap: square"/>
     </g>
     <g id="line2d_65">
      <g>
       <use xlink:href="#m67b50e4eb9" x="974.086263" y="531.970632" style="fill: #555555; stroke: #555555; stroke-width: 0.8"/>
      </g>
     </g>
     <g id="text_34">
      <!-- 600 -->
      <g style="fill: #555555" transform="translate(964.542513 546.569069) scale(0.1 -0.1)">
       <use xlink:href="#DejaVuSans-36"/>
       <use xlink:href="#DejaVuSans-30" transform="translate(63.623047 0)"/>
       <use xlink:href="#DejaVuSans-30" transform="translate(127.246094 0)"/>
      </g>
     </g>
    </g>
    <g id="xtick_20">
     <g id="line2d_66">
      <path d="M 1257.731449 531.970632  L 1257.731449 438.290318  " clip-path="url(#p7cb2576478)" style="fill: none; stroke: #ffffff; stroke-width: 0.8; stroke-linecap: square"/>
     </g>
     <g id="line2d_67">
      <g>
       <use xlink:href="#m67b50e4eb9" x="1257.731449" y="531.970632" style="fill: #555555; stroke: #555555; stroke-width: 0.8"/>
      </g>
     </g>
     <g id="text_35">
      <!-- 800 -->
      <g style="fill: #555555" transform="translate(1248.187699 546.569069) scale(0.1 -0.1)">
       <use xlink:href="#DejaVuSans-38"/>
       <use xlink:href="#DejaVuSans-30" transform="translate(63.623047 0)"/>
       <use xlink:href="#DejaVuSans-30" transform="translate(127.246094 0)"/>
      </g>
     </g>
    </g>
   </g>
   <g id="matplotlib.axis_8">
    <g id="ytick_13">
     <g id="line2d_68">
      <path d="M 64.010684 527.712436  L 1365.091152 527.712436  " clip-path="url(#p7cb2576478)" style="fill: none; stroke: #ffffff; stroke-width: 0.8; stroke-linecap: square"/>
     </g>
     <g id="line2d_69">
      <g>
       <use xlink:href="#mb692f5eb23" x="64.010684" y="527.712436" style="fill: #555555; stroke: #555555; stroke-width: 0.8"/>
      </g>
     </g>
     <g id="text_36">
      <!-- 0.0 -->
      <g style="fill: #555555" transform="translate(41.107559 531.511654) scale(0.1 -0.1)">
       <use xlink:href="#DejaVuSans-30"/>
       <use xlink:href="#DejaVuSans-2e" transform="translate(63.623047 0)"/>
       <use xlink:href="#DejaVuSans-30" transform="translate(95.410156 0)"/>
      </g>
     </g>
    </g>
    <g id="ytick_14">
     <g id="line2d_70">
      <path d="M 64.010684 485.130475  L 1365.091152 485.130475  " clip-path="url(#p7cb2576478)" style="fill: none; stroke: #ffffff; stroke-width: 0.8; stroke-linecap: square"/>
     </g>
     <g id="line2d_71">
      <g>
       <use xlink:href="#mb692f5eb23" x="64.010684" y="485.130475" style="fill: #555555; stroke: #555555; stroke-width: 0.8"/>
      </g>
     </g>
     <g id="text_37">
      <!-- 0.5 -->
      <g style="fill: #555555" transform="translate(41.107559 488.929694) scale(0.1 -0.1)">
       <use xlink:href="#DejaVuSans-30"/>
       <use xlink:href="#DejaVuSans-2e" transform="translate(63.623047 0)"/>
       <use xlink:href="#DejaVuSans-35" transform="translate(95.410156 0)"/>
      </g>
     </g>
    </g>
    <g id="ytick_15">
     <g id="line2d_72">
      <path d="M 64.010684 442.548514  L 1365.091152 442.548514  " clip-path="url(#p7cb2576478)" style="fill: none; stroke: #ffffff; stroke-width: 0.8; stroke-linecap: square"/>
     </g>
     <g id="line2d_73">
      <g>
       <use xlink:href="#mb692f5eb23" x="64.010684" y="442.548514" style="fill: #555555; stroke: #555555; stroke-width: 0.8"/>
      </g>
     </g>
     <g id="text_38">
      <!-- 1.0 -->
      <g style="fill: #555555" transform="translate(41.107559 446.347733) scale(0.1 -0.1)">
       <use xlink:href="#DejaVuSans-31"/>
       <use xlink:href="#DejaVuSans-2e" transform="translate(63.623047 0)"/>
       <use xlink:href="#DejaVuSans-30" transform="translate(95.410156 0)"/>
      </g>
     </g>
    </g>
   </g>
   <g id="line2d_74">
    <path d="M 123.150706 442.548514  L 124.568932 527.712436  L 145.842321 527.712436  L 147.260547 442.548514  L 148.678772 442.548514  L 150.096998 485.130475  L 171.370387 485.130475  L 172.788613 442.548514  L 174.206839 442.548514  L 175.625065 470.936488  L 194.062002 470.936488  L 195.480228 442.548514  L 199.734906 442.548514  L 201.153132 463.839494  L 206.826036 463.839494  L 208.244261 459.581298  L 209.662487 476.614083  L 221.008295 476.614083  L 222.426521 470.936488  L 230.935876 470.936488  L 232.354102 456.742501  L 235.190554 456.742501  L 236.60878 454.714789  L 238.027006 466.881063  L 242.281684 466.881063  L 243.69991 454.714789  L 249.372813 454.714789  L 250.791039 453.194004  L 252.209265 463.839494  L 256.463943 463.839494  L 257.882169 453.194004  L 263.555073 453.194004  L 264.973299 461.47383  L 266.391525 480.399146  L 272.064428 518.249778  L 273.482654 518.249778  L 274.90088 527.712436  L 277.737332 527.712436  L 279.155558 519.196044  L 280.573784 527.712436  L 291.919591 527.712436  L 293.337817 519.970261  L 294.756043 527.712436  L 300.428947 527.712436  L 301.847173 520.615442  L 303.265399 527.712436  L 308.938302 527.712436  L 310.356528 519.970261  L 311.774754 527.712436  L 317.447658 527.712436  L 318.865884 519.196044  L 320.28411 527.712436  L 321.702336 519.196044  L 324.538788 519.196044  L 325.957014 518.249778  L 327.37524 499.324462  L 328.793465 508.78712  L 330.211691 506.421455  L 331.629917 506.421455  L 333.048143 491.213612  L 335.884595 479.047338  L 337.302821 485.130475  L 340.139273 485.130475  L 341.557499 470.936488  L 342.975725 470.936488  L 344.393951 466.881063  L 345.812177 479.047338  L 347.230403 479.047338  L 348.648628 466.881063  L 351.48508 466.881063  L 352.903306 463.839494  L 359.994436 463.839494  L 361.412662 461.47383  L 362.830888 470.936488  L 365.66734 470.936488  L 367.085566 461.47383  L 368.503791 461.47383  L 369.922017 459.581298  L 371.340243 468.097691  L 372.758469 468.097691  L 374.176695 459.581298  L 377.013147 459.581298  L 378.431373 458.032863  L 379.849599 465.775038  L 381.267825 465.775038  L 382.686051 458.032863  L 384.104277 458.032863  L 385.522503 456.742501  L 386.940729 463.839494  L 388.358954 463.839494  L 389.77718 456.742501  L 391.195406 456.742501  L 392.613632 455.650656  L 394.031858 462.201727  L 395.450084 462.201727  L 396.86831 455.650656  L 398.286536 455.650656  L 399.704762 454.714789  L 401.122988 460.797926  L 402.541214 460.797926  L 403.95944 454.714789  L 405.377666 454.714789  L 406.795892 453.903704  L 408.214117 459.581298  L 409.632343 459.581298  L 411.050569 453.903704  L 412.468795 453.903704  L 413.887021 453.194004  L 415.305247 458.516749  L 416.723473 458.516749  L 418.141699 453.194004  L 419.559925 453.194004  L 420.978151 452.567799  L 426.651055 452.567799  L 428.06928 452.011172  L 433.742184 452.011172  L 435.16041 447.030826  L 436.578636 451.513137  L 440.833314 451.513137  L 442.25154 446.80671  L 443.669766 451.064906  L 447.924444 451.064906  L 449.342669 446.603939  L 450.760895 450.659364  L 452.179121 450.659364  L 453.597347 446.603939  L 455.015573 446.603939  L 456.433799 446.419601  L 457.852025 450.290689  L 459.270251 446.419601  L 462.106703 446.419601  L 463.524929 445.824049  L 464.943155 458.926191  L 466.361381 455.165391  L 467.779607 457.231949  L 469.197832 463.105323  L 470.616058 463.105323  L 472.034284 461.779077  L 473.45251 464.5263  L 474.870736 463.839494  L 476.288962 465.775038  L 477.707188 465.775038  L 479.125414 462.587084  L 480.54364 462.014553  L 481.961866 464.447808  L 483.380092 463.839494  L 484.798318 466.205159  L 486.216544 465.56579  L 487.63477 467.867518  L 489.052995 467.201228  L 490.471221 469.442384  L 491.889447 468.752798  L 493.307673 470.226789  L 494.725899 472.355887  L 496.144125 471.628878  L 497.562351 472.9642  L 498.980577 477.019625  L 500.398803 478.198528  L 501.817029 482.15964  L 503.235255 484.140197  L 504.653481 485.130475  L 506.071707 487.969272  L 507.489933 489.861804  L 508.908158 488.833254  L 510.326384 489.660471  L 511.74461 493.284467  L 513.162836 494.001717  L 514.581062 497.550213  L 515.999288 498.165769  L 517.417514 499.903808  L 518.83574 499.903808  L 520.253966 500.459981  L 523.090418 503.866538  L 524.508644 502.664223  L 527.345096 506.823172  L 528.763321 508.78712  L 530.181547 511.941339  L 531.599773 509.463024  L 533.017999 512.504593  L 534.436225 511.277293  L 535.854451 511.277293  L 537.272677 515.546161  L 538.690903 514.025377  L 540.109129 509.463024  L 541.527355 509.463024  L 542.945581 511.277293  L 544.363807 511.277293  L 545.782033 511.560657  L 547.200259 511.560657  L 548.618484 512.771397  L 550.03671 507.155627  L 551.454936 507.155627  L 552.873162 505.300877  L 554.291388 501.282253  L 555.709614 502.31267  L 557.12784 500.818566  L 558.546066 495.408879  L 559.964292 496.877223  L 561.382518 494.84215  L 562.800744 491.626028  L 564.21897 491.853942  L 567.055422 485.852203  L 568.473647 487.295659  L 569.891873 483.662131  L 574.146551 478.822036  L 575.564777 475.065648  L 578.401229 469.865244  L 579.819455 467.782269  L 581.237681 469.359378  L 582.655907 464.628049  L 584.074133 465.044644  L 585.492359 465.044644  L 586.910585 461.47383  L 588.32881 463.05094  L 589.747036 461.830911  L 591.165262 459.89672  L 592.583488 458.617178  L 594.001714 458.617178  L 596.838166 455.403446  L 598.256392 452.189713  L 601.092844 452.189713  L 602.51107 450.737353  L 603.929296 447.558156  L 612.438651 447.558156  L 613.856877 445.955071  L 630.875588 445.955071  L 632.293814 444.286553  L 637.966718 444.286553  L 639.384944 442.548514  L 681.931722 442.548514  L 694.695755 458.516749  L 696.113981 458.516749  L 703.205111 467.387991  L 704.623337 467.387991  L 708.878014 472.710736  L 710.29624 472.710736  L 713.132692 476.259233  L 714.550918 474.484985  L 717.38737 474.484985  L 718.805596 472.710736  L 720.223822 472.710736  L 721.642048 471.540487  L 724.4785 471.540487  L 725.896726 470.319358  L 727.314952 468.467968  L 730.151403 465.775038  L 731.569629 461.903951  L 734.406081 469.646125  L 735.824307 472.256859  L 737.242533 476.217971  L 738.660759 478.198528  L 740.078985 482.15964  L 741.497211 485.130475  L 742.915437 487.158187  L 745.751889 489.388671  L 747.170115 491.517769  L 748.58834 492.773391  L 750.006566 494.957081  L 751.424792 496.336254  L 752.843018 498.57741  L 755.67947 501.690126  L 757.097696 500.946632  L 759.934148 504.485912  L 761.352374 503.760083  L 762.7706 506.421455  L 764.188826 508.481873  L 765.607052 511.229096  L 767.025278 513.518449  L 768.443504 516.357246  L 771.279955 521.629298  L 772.698181 521.629298  L 774.116407 521.403997  L 775.534633 515.546161  L 776.952859 518.58773  L 778.371085 515.095558  L 779.789311 511.941339  L 781.207537 515.095558  L 782.625763 511.941339  L 784.043989 505.6329  L 785.462215 508.78712  L 786.880441 504.783688  L 788.298667 498.232617  L 789.716892 501.508152  L 791.135118 500.459981  L 792.553344 494.957081  L 793.97157 492.227468  L 795.389796 488.678972  L 796.808022 488.678972  L 798.226248 483.279085  L 799.644474 479.576306  L 801.0627 477.3883  L 802.480926 473.517213  L 803.899152 468.467968  L 805.317378 465.775038  L 806.735604 465.775038  L 808.15383 464.765189  L 809.572055 461.903951  L 810.990281 458.032863  L 812.408507 457.359631  L 815.244959 457.359631  L 816.663185 453.194004  L 819.499637 453.194004  L 820.917863 449.645507  L 822.336089 449.645507  L 823.754315 446.097011  L 826.590767 446.097011  L 828.008993 442.548514  L 915.939 442.548514  L 918.775452 449.645507  L 952.812874 449.645507  L 954.2311 446.251293  L 958.485778 446.251293  L 959.904004 442.548514  L 965.576908 442.548514  L 979.759167 481.259387  L 981.177393 481.259387  L 989.686748 504.485912  L 991.104974 504.485912  L 999.61433 527.712436  L 1005.287234 527.712436  L 1006.70546 523.657011  L 1009.541911 523.230124  L 1010.960137 523.230124  L 1012.378363 518.747812  L 1015.214815 517.693151  L 1016.633041 517.066945  L 1018.051267 511.7442  L 1019.469493 505.002057  L 1022.305945 505.002057  L 1023.724171 497.296749  L 1025.142397 494.957081  L 1026.560623 485.130475  L 1027.978849 478.033481  L 1030.8153 478.033481  L 1032.233526 473.517213  L 1037.90643 473.517213  L 1039.324656 468.097691  L 1040.742882 468.097691  L 1042.161108 453.194004  L 1043.579334 453.194004  L 1044.99756 442.548514  L 1199.584186 442.548514  L 1209.511767 527.712436  L 1305.951131 527.712436  L 1305.951131 527.712436  " clip-path="url(#p7cb2576478)" style="fill: none; stroke: #e24a33; stroke-width: 1.5; stroke-linecap: square"/>
   </g>
   <g id="patch_18">
    <path d="M 64.010684 531.970632  L 64.010684 438.290318  " style="fill: none; stroke: #ffffff; stroke-linejoin: miter; stroke-linecap: square"/>
   </g>
   <g id="patch_19">
    <path d="M 1365.091152 531.970632  L 1365.091152 438.290318  " style="fill: none; stroke: #ffffff; stroke-linejoin: miter; stroke-linecap: square"/>
   </g>
   <g id="patch_20">
    <path d="M 64.010684 531.970632  L 1365.091152 531.970632  " style="fill: none; stroke: #ffffff; stroke-linejoin: miter; stroke-linecap: square"/>
   </g>
   <g id="patch_21">
    <path d="M 64.010684 438.290318  L 1365.091152 438.290318  " style="fill: none; stroke: #ffffff; stroke-linejoin: miter; stroke-linecap: square"/>
   </g>
   <g id="text_39">
    <!-- Stop Ratio -->
    <g transform="translate(677.411293 432.290318) scale(0.144 -0.144)">
     <defs>
      <path id="DejaVuSans-53" d="M 3425 4513  L 3425 3897  Q 3066 4069 2747 4153  Q 2428 4238 2131 4238  Q 1616 4238 1336 4038  Q 1056 3838 1056 3469  Q 1056 3159 1242 3001  Q 1428 2844 1947 2747  L 2328 2669  Q 3034 2534 3370 2195  Q 3706 1856 3706 1288  Q 3706 609 3251 259  Q 2797 -91 1919 -91  Q 1588 -91 1214 -16  Q 841 59 441 206  L 441 856  Q 825 641 1194 531  Q 1563 422 1919 422  Q 2459 422 2753 634  Q 3047 847 3047 1241  Q 3047 1584 2836 1778  Q 2625 1972 2144 2069  L 1759 2144  Q 1053 2284 737 2584  Q 422 2884 422 3419  Q 422 4038 858 4394  Q 1294 4750 2059 4750  Q 2388 4750 2728 4690  Q 3069 4631 3425 4513  z " transform="scale(0.015625)"/>
      <path id="DejaVuSans-52" d="M 2841 2188  Q 3044 2119 3236 1894  Q 3428 1669 3622 1275  L 4263 0  L 3584 0  L 2988 1197  Q 2756 1666 2539 1819  Q 2322 1972 1947 1972  L 1259 1972  L 1259 0  L 628 0  L 628 4666  L 2053 4666  Q 2853 4666 3247 4331  Q 3641 3997 3641 3322  Q 3641 2881 3436 2590  Q 3231 2300 2841 2188  z M 1259 4147  L 1259 2491  L 2053 2491  Q 2509 2491 2742 2702  Q 2975 2913 2975 3322  Q 2975 3731 2742 3939  Q 2509 4147 2053 4147  L 1259 4147  z " transform="scale(0.015625)"/>
     </defs>
     <use xlink:href="#DejaVuSans-53"/>
     <use xlink:href="#DejaVuSans-74" transform="translate(63.476562 0)"/>
     <use xlink:href="#DejaVuSans-6f" transform="translate(102.685547 0)"/>
     <use xlink:href="#DejaVuSans-70" transform="translate(163.867188 0)"/>
     <use xlink:href="#DejaVuSans-20" transform="translate(227.34375 0)"/>
     <use xlink:href="#DejaVuSans-52" transform="translate(259.130859 0)"/>
     <use xlink:href="#DejaVuSans-61" transform="translate(326.363281 0)"/>
     <use xlink:href="#DejaVuSans-74" transform="translate(387.642578 0)"/>
     <use xlink:href="#DejaVuSans-69" transform="translate(426.851562 0)"/>
     <use xlink:href="#DejaVuSans-6f" transform="translate(454.634766 0)"/>
    </g>
   </g>
  </g>
  <g id="axes_5">
   <g id="patch_22">
    <path d="M 64.010684 669.117304  L 1365.091152 669.117304  L 1365.091152 575.43699  L 64.010684 575.43699  z " style="fill: #e5e5e5"/>
   </g>
   <g id="matplotlib.axis_9">
    <g id="xtick_21">
     <g id="line2d_75">
      <path d="M 123.150706 669.117304  L 123.150706 575.43699  " clip-path="url(#p2980bca250)" style="fill: none; stroke: #ffffff; stroke-width: 0.8; stroke-linecap: square"/>
     </g>
     <g id="line2d_76">
      <g>
       <use xlink:href="#m67b50e4eb9" x="123.150706" y="669.117304" style="fill: #555555; stroke: #555555; stroke-width: 0.8"/>
      </g>
     </g>
     <g id="text_40">
      <!-- 0 -->
      <g style="fill: #555555" transform="translate(119.969456 683.715741) scale(0.1 -0.1)">
       <use xlink:href="#DejaVuSans-30"/>
      </g>
     </g>
    </g>
    <g id="xtick_22">
     <g id="line2d_77">
      <path d="M 406.795892 669.117304  L 406.795892 575.43699  " clip-path="url(#p2980bca250)" style="fill: none; stroke: #ffffff; stroke-width: 0.8; stroke-linecap: square"/>
     </g>
     <g id="line2d_78">
      <g>
       <use xlink:href="#m67b50e4eb9" x="406.795892" y="669.117304" style="fill: #555555; stroke: #555555; stroke-width: 0.8"/>
      </g>
     </g>
     <g id="text_41">
      <!-- 200 -->
      <g style="fill: #555555" transform="translate(397.252142 683.715741) scale(0.1 -0.1)">
       <use xlink:href="#DejaVuSans-32"/>
       <use xlink:href="#DejaVuSans-30" transform="translate(63.623047 0)"/>
       <use xlink:href="#DejaVuSans-30" transform="translate(127.246094 0)"/>
      </g>
     </g>
    </g>
    <g id="xtick_23">
     <g id="line2d_79">
      <path d="M 690.441077 669.117304  L 690.441077 575.43699  " clip-path="url(#p2980bca250)" style="fill: none; stroke: #ffffff; stroke-width: 0.8; stroke-linecap: square"/>
     </g>
     <g id="line2d_80">
      <g>
       <use xlink:href="#m67b50e4eb9" x="690.441077" y="669.117304" style="fill: #555555; stroke: #555555; stroke-width: 0.8"/>
      </g>
     </g>
     <g id="text_42">
      <!-- 400 -->
      <g style="fill: #555555" transform="translate(680.897327 683.715741) scale(0.1 -0.1)">
       <use xlink:href="#DejaVuSans-34"/>
       <use xlink:href="#DejaVuSans-30" transform="translate(63.623047 0)"/>
       <use xlink:href="#DejaVuSans-30" transform="translate(127.246094 0)"/>
      </g>
     </g>
    </g>
    <g id="xtick_24">
     <g id="line2d_81">
      <path d="M 974.086263 669.117304  L 974.086263 575.43699  " clip-path="url(#p2980bca250)" style="fill: none; stroke: #ffffff; stroke-width: 0.8; stroke-linecap: square"/>
     </g>
     <g id="line2d_82">
      <g>
       <use xlink:href="#m67b50e4eb9" x="974.086263" y="669.117304" style="fill: #555555; stroke: #555555; stroke-width: 0.8"/>
      </g>
     </g>
     <g id="text_43">
      <!-- 600 -->
      <g style="fill: #555555" transform="translate(964.542513 683.715741) scale(0.1 -0.1)">
       <use xlink:href="#DejaVuSans-36"/>
       <use xlink:href="#DejaVuSans-30" transform="translate(63.623047 0)"/>
       <use xlink:href="#DejaVuSans-30" transform="translate(127.246094 0)"/>
      </g>
     </g>
    </g>
    <g id="xtick_25">
     <g id="line2d_83">
      <path d="M 1257.731449 669.117304  L 1257.731449 575.43699  " clip-path="url(#p2980bca250)" style="fill: none; stroke: #ffffff; stroke-width: 0.8; stroke-linecap: square"/>
     </g>
     <g id="line2d_84">
      <g>
       <use xlink:href="#m67b50e4eb9" x="1257.731449" y="669.117304" style="fill: #555555; stroke: #555555; stroke-width: 0.8"/>
      </g>
     </g>
     <g id="text_44">
      <!-- 800 -->
      <g style="fill: #555555" transform="translate(1248.187699 683.715741) scale(0.1 -0.1)">
       <use xlink:href="#DejaVuSans-38"/>
       <use xlink:href="#DejaVuSans-30" transform="translate(63.623047 0)"/>
       <use xlink:href="#DejaVuSans-30" transform="translate(127.246094 0)"/>
      </g>
     </g>
    </g>
   </g>
   <g id="matplotlib.axis_10">
    <g id="ytick_16">
     <g id="line2d_85">
      <path d="M 64.010684 649.374758  L 1365.091152 649.374758  " clip-path="url(#p2980bca250)" style="fill: none; stroke: #ffffff; stroke-width: 0.8; stroke-linecap: square"/>
     </g>
     <g id="line2d_86">
      <g>
       <use xlink:href="#mb692f5eb23" x="64.010684" y="649.374758" style="fill: #555555; stroke: #555555; stroke-width: 0.8"/>
      </g>
     </g>
     <g id="text_45">
      <!-- 0 -->
      <g style="fill: #555555" transform="translate(50.648184 653.173977) scale(0.1 -0.1)">
       <use xlink:href="#DejaVuSans-30"/>
      </g>
     </g>
    </g>
    <g id="ytick_17">
     <g id="line2d_87">
      <path d="M 64.010684 610.663885  L 1365.091152 610.663885  " clip-path="url(#p2980bca250)" style="fill: none; stroke: #ffffff; stroke-width: 0.8; stroke-linecap: square"/>
     </g>
     <g id="line2d_88">
      <g>
       <use xlink:href="#mb692f5eb23" x="64.010684" y="610.663885" style="fill: #555555; stroke: #555555; stroke-width: 0.8"/>
      </g>
     </g>
     <g id="text_46">
      <!-- 5 -->
      <g style="fill: #555555" transform="translate(50.648184 614.463104) scale(0.1 -0.1)">
       <use xlink:href="#DejaVuSans-35"/>
      </g>
     </g>
    </g>
   </g>
   <g id="line2d_89">
    <path d="M 123.150706 649.374758  L 143.005869 649.374758  L 144.424095 641.632584  L 169.952161 641.632584  L 171.370387 633.890409  L 263.555073 633.890409  L 264.973299 641.632584  L 267.80975 641.632584  L 269.227976 657.116933  L 270.646202 649.374758  L 272.064428 657.116933  L 273.482654 657.116933  L 274.90088 649.374758  L 276.319106 657.116933  L 286.246688 657.116933  L 287.664914 649.374758  L 290.501365 664.859108  L 291.919591 657.116933  L 293.337817 657.116933  L 294.756043 649.374758  L 297.592495 649.374758  L 299.010721 657.116933  L 300.428947 657.116933  L 301.847173 649.374758  L 313.19298 649.374758  L 314.611206 641.632584  L 325.957014 641.632584  L 327.37524 633.890409  L 462.106703 633.890409  L 463.524929 626.148234  L 497.562351 626.148234  L 498.980577 633.890409  L 501.817029 633.890409  L 503.235255 626.148234  L 506.071707 626.148234  L 507.489933 641.632584  L 508.908158 633.890409  L 513.162836 633.890409  L 514.581062 626.148234  L 515.999288 626.148234  L 517.417514 618.40606  L 518.83574 626.148234  L 520.253966 626.148234  L 521.672192 633.890409  L 523.090418 618.40606  L 524.508644 626.148234  L 530.181547 626.148234  L 531.599773 618.40606  L 535.854451 618.40606  L 538.690903 602.92171  L 541.527355 602.92171  L 542.945581 595.179535  L 544.363807 595.179535  L 545.782033 602.92171  L 548.618484 587.437361  L 550.03671 602.92171  L 551.454936 587.437361  L 552.873162 602.92171  L 554.291388 587.437361  L 561.382518 587.437361  L 562.800744 579.695186  L 564.21897 587.437361  L 565.637196 587.437361  L 567.055422 595.179535  L 568.473647 587.437361  L 569.891873 587.437361  L 571.310099 579.695186  L 572.728325 587.437361  L 574.146551 587.437361  L 575.564777 595.179535  L 576.983003 587.437361  L 589.747036 587.437361  L 591.165262 595.179535  L 594.001714 595.179535  L 595.41994 602.92171  L 681.931722 602.92171  L 683.349948 610.663885  L 686.1864 610.663885  L 687.604626 626.148234  L 689.022851 610.663885  L 693.277529 610.663885  L 694.695755 626.148234  L 696.113981 610.663885  L 698.950433 610.663885  L 700.368659 626.148234  L 701.786885 610.663885  L 703.205111 626.148234  L 704.623337 610.663885  L 706.041563 626.148234  L 707.459789 610.663885  L 708.878014 626.148234  L 710.29624 610.663885  L 711.714466 626.148234  L 713.132692 610.663885  L 715.969144 626.148234  L 717.38737 610.663885  L 718.805596 626.148234  L 720.223822 610.663885  L 721.642048 626.148234  L 723.060274 618.40606  L 724.4785 626.148234  L 727.314952 610.663885  L 731.569629 610.663885  L 732.987855 626.148234  L 734.406081 618.40606  L 735.824307 618.40606  L 737.242533 649.374758  L 738.660759 626.148234  L 740.078985 649.374758  L 741.497211 626.148234  L 742.915437 641.632584  L 744.333663 626.148234  L 745.751889 641.632584  L 747.170115 626.148234  L 748.58834 649.374758  L 750.006566 633.890409  L 751.424792 649.374758  L 754.261244 633.890409  L 755.67947 649.374758  L 757.097696 641.632584  L 761.352374 641.632584  L 762.7706 626.148234  L 765.607052 641.632584  L 767.025278 641.632584  L 769.861729 626.148234  L 776.952859 626.148234  L 778.371085 618.40606  L 915.939 618.40606  L 917.357226 626.148234  L 921.611904 626.148234  L 923.03013 641.632584  L 924.448356 633.890409  L 925.866582 641.632584  L 927.284808 633.890409  L 965.576908 633.890409  L 966.995134 641.632584  L 969.831585 641.632584  L 971.249811 657.116933  L 972.668037 657.116933  L 974.086263 664.859108  L 975.504489 649.374758  L 976.922715 657.116933  L 978.340941 649.374758  L 979.759167 649.374758  L 981.177393 657.116933  L 984.013845 657.116933  L 985.432071 649.374758  L 986.850297 649.374758  L 988.268523 657.116933  L 989.686748 641.632584  L 992.5232 657.116933  L 993.941426 657.116933  L 995.359652 641.632584  L 998.196104 657.116933  L 999.61433 657.116933  L 1001.032556 649.374758  L 1002.450782 657.116933  L 1005.287234 641.632584  L 1009.541911 641.632584  L 1010.960137 633.890409  L 1199.584186 633.890409  L 1201.002412 641.632584  L 1202.420638 641.632584  L 1205.25709 657.116933  L 1206.675316 649.374758  L 1208.093542 657.116933  L 1210.929993 657.116933  L 1212.348219 649.374758  L 1213.766445 649.374758  L 1215.184671 657.116933  L 1218.021123 657.116933  L 1219.439349 641.632584  L 1222.275801 657.116933  L 1223.694027 657.116933  L 1225.112253 649.374758  L 1305.951131 649.374758  L 1305.951131 649.374758  " clip-path="url(#p2980bca250)" style="fill: none; stroke: #e24a33; stroke-width: 1.5; stroke-linecap: square"/>
   </g>
   <g id="patch_23">
    <path d="M 64.010684 669.117304  L 64.010684 575.43699  " style="fill: none; stroke: #ffffff; stroke-linejoin: miter; stroke-linecap: square"/>
   </g>
   <g id="patch_24">
    <path d="M 1365.091152 669.117304  L 1365.091152 575.43699  " style="fill: none; stroke: #ffffff; stroke-linejoin: miter; stroke-linecap: square"/>
   </g>
   <g id="patch_25">
    <path d="M 64.010684 669.117304  L 1365.091152 669.117304  " style="fill: none; stroke: #ffffff; stroke-linejoin: miter; stroke-linecap: square"/>
   </g>
   <g id="patch_26">
    <path d="M 64.010684 575.43699  L 1365.091152 575.43699  " style="fill: none; stroke: #ffffff; stroke-linejoin: miter; stroke-linecap: square"/>
   </g>
   <g id="text_47">
    <!-- Pressure (incoming - outgoing) -->
    <g transform="translate(603.757543 569.43699) scale(0.144 -0.144)">
     <defs>
      <path id="DejaVuSans-2d" d="M 313 2009  L 1997 2009  L 1997 1497  L 313 1497  L 313 2009  z " transform="scale(0.015625)"/>
     </defs>
     <use xlink:href="#DejaVuSans-50"/>
     <use xlink:href="#DejaVuSans-72" transform="translate(58.552734 0)"/>
     <use xlink:href="#DejaVuSans-65" transform="translate(97.416016 0)"/>
     <use xlink:href="#DejaVuSans-73" transform="translate(158.939453 0)"/>
     <use xlink:href="#DejaVuSans-73" transform="translate(211.039062 0)"/>
     <use xlink:href="#DejaVuSans-75" transform="translate(263.138672 0)"/>
     <use xlink:href="#DejaVuSans-72" transform="translate(326.517578 0)"/>
     <use xlink:href="#DejaVuSans-65" transform="translate(365.380859 0)"/>
     <use xlink:href="#DejaVuSans-20" transform="translate(426.904297 0)"/>
     <use xlink:href="#DejaVuSans-28" transform="translate(458.691406 0)"/>
     <use xlink:href="#DejaVuSans-69" transform="translate(497.705078 0)"/>
     <use xlink:href="#DejaVuSans-6e" transform="translate(525.488281 0)"/>
     <use xlink:href="#DejaVuSans-63" transform="translate(588.867188 0)"/>
     <use xlink:href="#DejaVuSans-6f" transform="translate(643.847656 0)"/>
     <use xlink:href="#DejaVuSans-6d" transform="translate(705.029297 0)"/>
     <use xlink:href="#DejaVuSans-69" transform="translate(802.441406 0)"/>
     <use xlink:href="#DejaVuSans-6e" transform="translate(830.224609 0)"/>
     <use xlink:href="#DejaVuSans-67" transform="translate(893.603516 0)"/>
     <use xlink:href="#DejaVuSans-20" transform="translate(957.080078 0)"/>
     <use xlink:href="#DejaVuSans-2d" transform="translate(988.867188 0)"/>
     <use xlink:href="#DejaVuSans-20" transform="translate(1024.951172 0)"/>
     <use xlink:href="#DejaVuSans-6f" transform="translate(1056.738281 0)"/>
     <use xlink:href="#DejaVuSans-75" transform="translate(1117.919922 0)"/>
     <use xlink:href="#DejaVuSans-74" transform="translate(1181.298828 0)"/>
     <use xlink:href="#DejaVuSans-67" transform="translate(1220.507812 0)"/>
     <use xlink:href="#DejaVuSans-6f" transform="translate(1283.984375 0)"/>
     <use xlink:href="#DejaVuSans-69" transform="translate(1345.166016 0)"/>
     <use xlink:href="#DejaVuSans-6e" transform="translate(1372.949219 0)"/>
     <use xlink:href="#DejaVuSans-67" transform="translate(1436.328125 0)"/>
     <use xlink:href="#DejaVuSans-29" transform="translate(1499.804688 0)"/>
    </g>
   </g>
  </g>
 </g>
 <defs>
  <clipPath id="p3a7ffe85e5">
   <rect x="64.010684" y="26.850302" width="1301.080467" height="93.680314"/>
  </clipPath>
  <clipPath id="pfe381f0cac">
   <rect x="64.010684" y="163.996974" width="1301.080467" height="93.680314"/>
  </clipPath>
  <clipPath id="pc735a02b79">
   <rect x="64.010684" y="301.143646" width="1301.080467" height="93.680314"/>
  </clipPath>
  <clipPath id="p7cb2576478">
   <rect x="64.010684" y="438.290318" width="1301.080467" height="93.680314"/>
  </clipPath>
  <clipPath id="p2980bca250">
   <rect x="64.010684" y="575.43699" width="1301.080467" height="93.680314"/>
  </clipPath>
 </defs>
</svg>